<svg id="Layer_1" data-name="Layer 1" xmlns="http://www.w3.org/2000/svg" viewBox="0 0 103 56"><defs><style>.cls-1,.cls-5{fill:#f6921e;}.cls-2,.cls-3{fill:#fff;}.cls-2,.cls-5,.cls-6{fill-rule:evenodd;}.cls-4,.cls-6{fill:#00a04e;}</style></defs><path class="cls-1" d="M12.75,37.34H7.49l-1,2.36H4.66l4.6-10.46h1.8L15.62,39.7H13.74Zm-.67-1.57-2-4.65-2,4.65Z"/><path class="cls-1" d="M22.57,31.77v1.15L18.05,38.3h4.66v1.41l-6.78,0V38.54l4.53-5.38H16.07V31.75Z"/><path class="cls-1" d="M28.75,39.7v-1a3.17,3.17,0,0,1-2.62,1.05,2.51,2.51,0,0,1-2.78-2.47c0-1.45,1.09-2.38,3-2.39h2.4v-.24c0-1-.64-1.6-1.89-1.6a4.16,4.16,0,0,0-2.34.81l-.7-1.2a5.77,5.77,0,0,1,3.41-1c2,0,3.19,1.05,3.2,2.8l0,5.21Zm0-2.79v-.73H26.59c-1.11,0-1.63.29-1.63,1.06s.58,1.18,1.53,1.18C27.71,38.42,28.65,37.78,28.74,36.91Z"/><path class="cls-1" d="M39.91,28.61V39.7H38.2V38.34a3.07,3.07,0,0,1-2.79,1.44,3.74,3.74,0,0,1-3.8-4.08,3.71,3.71,0,0,1,3.77-4,3.14,3.14,0,0,1,2.82,1.45V28.61ZM38.2,35.76a2.44,2.44,0,1,0-4.87,0,2.44,2.44,0,1,0,4.87,0Z"/><path class="cls-1" d="M44,29.48a1,1,0,1,1-2,0,1,1,0,1,1,2,0Zm-.15,2.27v8h-1.7v-8Z"/><polygon class="cls-2" points="22.64 12.49 26.26 16.34 27.02 17.41 27.79 18.48 26.85 17.56 25.91 16.65 22.64 12.49"/><polygon class="cls-2" points="24.27 11.4 26.83 16.03 27.31 17.25 27.79 18.48 27.1 17.36 26.41 16.23 24.27 11.4"/><polygon class="cls-2" points="26.14 10.78 27.47 15.88 27.63 17.18 27.79 18.48 27.4 17.22 27.01 15.97 26.14 10.78"/><polygon class="cls-2" points="28.11 10.68 28.14 15.91 27.96 17.19 27.79 18.48 27.73 17.18 27.66 15.87 28.11 10.68"/><polygon class="cls-2" points="30.07 11.12 28.77 16.12 28.28 17.3 27.79 18.48 28.06 17.22 28.32 15.96 30.07 11.12"/><polygon class="cls-2" points="31.87 12.06 29.34 16.49 28.57 17.48 27.79 18.48 28.37 17.35 28.95 16.21 31.87 12.06"/><polygon class="cls-2" points="33.39 13.44 29.81 16.99 28.8 17.73 27.79 18.48 28.64 17.55 29.49 16.62 33.39 13.44"/><polygon class="cls-2" points="34.54 15.16 30.14 17.6 28.96 18.04 27.79 18.48 28.86 17.82 29.92 17.16 34.54 15.16"/><polygon class="cls-2" points="35.22 17.11 30.31 18.26 29.05 18.37 27.79 18.48 29 18.13 30.2 17.79 35.22 17.11"/><polygon class="cls-2" points="35.39 19.15 30.3 18.94 29.05 18.71 27.79 18.48 29.06 18.46 30.32 18.46 35.39 19.15"/><polygon class="cls-2" points="35.05 21.14 30.13 19.59 28.96 19.04 27.79 18.48 29.03 18.8 30.27 19.13 35.05 21.14"/><polygon class="cls-2" points="34.21 22.95 29.79 20.16 28.79 19.32 27.79 18.48 28.92 19.12 30.05 19.76 34.21 22.95"/><polygon class="cls-2" points="32.94 24.46 29.32 20.62 28.56 19.55 27.79 18.48 28.73 19.39 29.67 20.31 32.94 24.46"/><polygon class="cls-2" points="31.31 25.56 28.75 20.93 28.27 19.7 27.79 18.48 28.48 19.6 29.17 20.73 31.31 25.56"/><polygon class="cls-2" points="29.45 26.18 28.11 21.08 27.95 19.78 27.79 18.48 28.18 19.73 28.57 20.99 29.45 26.18"/><polygon class="cls-2" points="27.47 26.27 27.44 21.04 27.62 19.76 27.79 18.48 27.86 19.78 27.92 21.09 27.47 26.27"/><polygon class="cls-2" points="25.51 25.83 26.81 20.84 27.3 19.66 27.79 18.48 27.52 19.74 27.26 21 25.51 25.83"/><polygon class="cls-2" points="23.71 24.89 26.23 20.47 27.01 19.47 27.79 18.48 27.21 19.61 26.64 20.75 23.71 24.89"/><polygon class="cls-2" points="22.19 23.52 25.77 19.96 26.78 19.22 27.79 18.48 26.94 19.41 26.09 20.33 22.19 23.52"/><polygon class="cls-2" points="21.05 21.8 25.44 19.36 26.62 18.92 27.79 18.48 26.73 19.14 25.66 19.8 21.05 21.8"/><polygon class="cls-2" points="20.36 19.85 25.27 18.69 26.53 18.59 27.79 18.48 26.59 18.82 25.38 19.17 20.36 19.85"/><polygon class="cls-2" points="20.19 17.81 25.28 18.01 26.53 18.25 27.79 18.48 26.52 18.49 25.26 18.5 20.19 17.81"/><polygon class="cls-2" points="20.53 15.82 25.45 17.36 26.62 17.92 27.79 18.48 26.55 18.15 25.31 17.82 20.53 15.82"/><polygon class="cls-2" points="21.37 14 25.79 16.8 26.79 17.64 27.79 18.48 26.66 17.84 25.53 17.19 21.37 14"/><path class="cls-2" d="M25.12,11.08a.39.39,0,0,1,.52.19.37.37,0,1,1-.67.33A.38.38,0,0,1,25.12,11.08Z"/><path class="cls-2" d="M27.05,10.7a.42.42,0,0,1,.46.32.38.38,0,0,1-.29.45.4.4,0,0,1-.46-.31A.39.39,0,0,1,27.05,10.7Z"/><path class="cls-2" d="M29,10.86a.4.4,0,0,1,.36.42.37.37,0,0,1-.4.36.41.41,0,0,1-.36-.42A.37.37,0,0,1,29,10.86Z"/><path class="cls-2" d="M30.92,11.53a.41.41,0,0,1,.25.5.38.38,0,0,1-.48.24.42.42,0,0,1-.25-.5A.37.37,0,0,1,30.92,11.53Z"/><path class="cls-2" d="M32.6,12.68a.4.4,0,0,1,.11.54.36.36,0,0,1-.52.1.41.41,0,0,1-.12-.55A.38.38,0,0,1,32.6,12.68Z"/><path class="cls-2" d="M34,14.22a.39.39,0,0,1,0,.55.36.36,0,0,1-.53,0,.4.4,0,0,1,0-.55A.38.38,0,0,1,34,14.22Z"/><path class="cls-2" d="M34.88,16.05a.38.38,0,0,1-.16.52.39.39,0,0,1-.52-.19.38.38,0,0,1,.17-.51A.39.39,0,0,1,34.88,16.05Z"/><path class="cls-2" d="M35.33,18.05a.39.39,0,0,1-.29.46.4.4,0,0,1-.45-.32.36.36,0,0,1,.29-.45A.4.4,0,0,1,35.33,18.05Z"/><path class="cls-2" d="M35.26,20.08a.36.36,0,0,1-.4.35A.4.4,0,0,1,34.5,20a.37.37,0,0,1,.4-.35A.39.39,0,0,1,35.26,20.08Z"/><path class="cls-2" d="M34.69,22a.36.36,0,0,1-.48.23.41.41,0,0,1-.25-.5.37.37,0,0,1,.48-.23A.41.41,0,0,1,34.69,22Z"/><path class="cls-2" d="M33.64,23.68a.37.37,0,0,1-.52.09.4.4,0,0,1-.12-.54.36.36,0,0,1,.52-.1A.41.41,0,0,1,33.64,23.68Z"/><path class="cls-2" d="M32.2,25a.37.37,0,0,1-.54-.05.4.4,0,0,1,0-.55.37.37,0,0,1,.54.05A.4.4,0,0,1,32.2,25Z"/><path class="cls-2" d="M30.45,25.88a.39.39,0,0,1-.51-.19.38.38,0,0,1,.16-.52.4.4,0,0,1,.35.71Z"/><path class="cls-2" d="M28.53,26.25a.39.39,0,0,1-.45-.31.37.37,0,0,1,.28-.46.39.39,0,0,1,.45.32A.36.36,0,0,1,28.53,26.25Z"/><path class="cls-2" d="M26.55,26.1a.41.41,0,0,1-.36-.42.37.37,0,0,1,.4-.36.41.41,0,0,1,.36.42A.37.37,0,0,1,26.55,26.1Z"/><path class="cls-2" d="M27.14,17.72a1,1,0,0,1,1.36.12,1,1,0,0,1-.06,1.39,1,1,0,0,1-1.36-.12A1,1,0,0,1,27.14,17.72Z"/><path class="cls-2" d="M33.59,13.26A7.92,7.92,0,0,0,24.49,11v.67a7.3,7.3,0,0,1,8.67,2,7.6,7.6,0,0,1-.44,10.57,7,7,0,0,1-8.23.78v.67a7.58,7.58,0,0,0,8.63-1A8.21,8.21,0,0,0,33.59,13.26Z"/><path class="cls-3" d="M54.06,43.29,51.32,39.6l-1.41,1.57v2.12H48.5V34.92h1.41v4.33l4-4.33h1.66L52.31,38.5l3.45,4.79Z"/><path class="cls-3" d="M60.47,43.29v-.77a2.56,2.56,0,0,1-2.09.83,2,2,0,0,1-2.23-2c0-1.16.87-1.9,2.39-1.91h1.92v-.2C60.46,38.47,60,38,59,38a3.32,3.32,0,0,0-1.87.64l-.56-1a4.66,4.66,0,0,1,2.73-.8c1.63,0,2.54.84,2.56,2.24v4.17Zm0-2.23v-.59H58.74c-.89,0-1.31.24-1.31.85s.47,1,1.23,1C59.64,42.27,60.39,41.75,60.46,41.06Z"/><path class="cls-4" d="M37.85,45.46l3.44,6.95,3.42-6.95h2.07V55.93H45.16V48.11l-3.3,6.72H40.71l-3.29-6.72v7.82H35.76V45.46Z"/><path class="cls-4" d="M53.81,55.93V55a3.17,3.17,0,0,1-2.62,1,2.51,2.51,0,0,1-2.78-2.47c0-1.45,1.08-2.37,3-2.39h2.4V50.9c0-1-.64-1.6-1.89-1.6a4.16,4.16,0,0,0-2.34.81l-.7-1.2a5.85,5.85,0,0,1,3.41-1c2,0,3.19,1.05,3.2,2.8l0,5.22Zm0-2.8V52.4H51.65c-1.11,0-1.63.3-1.63,1.06s.58,1.18,1.53,1.18C52.77,54.64,53.71,54,53.8,53.13Z"/><path class="cls-4" d="M65.09,51v5H63.37V51.45a1.76,1.76,0,0,0-1.9-1.92A2.26,2.26,0,0,0,59.2,52v3.92H57.49V44.83H59.2v4.7a3,3,0,0,1,2.94-1.62A2.78,2.78,0,0,1,65.09,51Z"/><path class="cls-4" d="M74.53,51.93a4.14,4.14,0,1,1-4.13-4A3.9,3.9,0,0,1,74.53,51.93ZM68,52a2.42,2.42,0,1,0,2.43-2.58A2.4,2.4,0,0,0,68,52Z"/><path class="cls-4" d="M80.42,55.42a3.81,3.81,0,0,1-2,.58,2.09,2.09,0,0,1-2.22-2.32V49.56H75.14V48.27h1.11V46.09H78v2.18h2.34v1.29H78v3.81c0,.82.32,1.08.85,1.08A2.68,2.68,0,0,0,80,54.1Z"/><path class="cls-4" d="M83.86,49.27c-.67,0-1.16.23-1.16.79,0,1.47,4.22.68,4.2,3.56,0,1.63-1.44,2.37-3,2.37a4.86,4.86,0,0,1-3.18-1.11l.61-1.23a4.26,4.26,0,0,0,2.65,1c.73,0,1.29-.25,1.29-.85,0-1.63-4.17-.72-4.15-3.59,0-1.62,1.4-2.3,2.92-2.3a5.06,5.06,0,0,1,2.77.8L86.14,50A4.68,4.68,0,0,0,83.86,49.27Z"/><path class="cls-4" d="M93,55.93V55a3.2,3.2,0,0,1-2.62,1,2.51,2.51,0,0,1-2.79-2.47c0-1.45,1.09-2.37,3-2.39H93V50.9c0-1-.64-1.6-1.89-1.6a4.16,4.16,0,0,0-2.34.81l-.7-1.2a5.87,5.87,0,0,1,3.41-1c2,0,3.19,1.05,3.21,2.8v5.22Zm0-2.8V52.4H90.85c-1.12,0-1.64.3-1.64,1.06s.58,1.18,1.53,1.18C92,54.64,92.9,54,93,53.13Z"/><path class="cls-4" d="M96.91,48l2.2,6.27L101.29,48H103l-3,8H98.19l-3.07-8Z"/><path class="cls-3" d="M6.47,49.8H2.26l-.79,1.89H0l3.68-8.37H5.12l3.65,8.37H7.27Zm-.54-1.25L4.36,44.83,2.79,48.55Z"/><path class="cls-3" d="M20.09,47.73v4H18.72V48.12a1.41,1.41,0,0,0-1.5-1.56,1.81,1.81,0,0,0-1.74,2v3.14H14.11V48.12a1.41,1.41,0,0,0-1.49-1.56,1.83,1.83,0,0,0-1.77,2v3.14H9.49V45.33h1.36v1.23a2.33,2.33,0,0,1,2.3-1.28,2.13,2.13,0,0,1,2.21,1.53,2.32,2.32,0,0,1,2.4-1.53A2.2,2.2,0,0,1,20.09,47.73Z"/><path class="cls-3" d="M25.19,45.28V46.6A1.93,1.93,0,0,0,23,48.37v3.32H21.62V45.33H23V46.6A2.31,2.31,0,0,1,25.19,45.28Z"/><path class="cls-3" d="M27.5,43.51a.8.8,0,1,1-.8-.82A.79.79,0,0,1,27.5,43.51Zm-.12,1.82v6.36H26V45.33Z"/><path class="cls-3" d="M32.69,51.29a3,3,0,0,1-1.56.46,1.68,1.68,0,0,1-1.78-1.85V46.6h-.89v-1h.89V43.82h1.36v1.75h1.87v1H30.71v3c0,.66.25.86.68.86a2.22,2.22,0,0,0,1-.28Z"/><path class="cls-5" d="M83.22,8.87A1.17,1.17,0,0,0,82.14,9a12.17,12.17,0,0,1-8.79.37A38,38,0,0,0,65.94,7.8C61.42,7.41,57.37,9,53.45,11a23.39,23.39,0,0,1-5.29,2.23c-1.67.37-2.29-.27-2-2,.26-1.42-.06-2-1.43-2.47a5.41,5.41,0,0,0-1.14-.27,39.22,39.22,0,0,0-14.3,1.26l-.38.18s5.31-.35,7.62,4.33a30.4,30.4,0,0,1,8.78.09c1.2.17,1.67.8,1.23,2a5.69,5.69,0,0,0-.31,1.54c-.13,1.58.58,2.19,2.13,1.84a7.56,7.56,0,0,0,1.48-.49,49,49,0,0,0,6.2-3.38A14.78,14.78,0,0,1,63,13.29c3.39-.36,6.79-.09,10.18-.24,2.93-.13,5.84-.45,8.33-2.24A3.8,3.8,0,0,0,83.22,8.87Z"/><path class="cls-6" d="M83.22,19.65a1.12,1.12,0,0,0-1.08.09,12.22,12.22,0,0,1-8.79.37,38,38,0,0,0-7.41-1.53c-4.52-.39-8.57,1.18-12.49,3.17A22.94,22.94,0,0,1,48.16,24c-1.67.38-2.29-.26-2-1.95.26-1.42-.06-2-1.43-2.47a4.86,4.86,0,0,0-1.14-.27,31.12,31.12,0,0,0-6-.13,8.6,8.6,0,0,1-4.2,6.59l1.32-.34a28.53,28.53,0,0,1,10.62-.26c1.2.16,1.67.8,1.23,2a5.77,5.77,0,0,0-.31,1.54c-.13,1.59.58,2.2,2.13,1.84a6.43,6.43,0,0,0,1.48-.49,48.89,48.89,0,0,0,6.2-3.37A14.78,14.78,0,0,1,63,24.07c3.39-.36,6.79-.09,10.18-.24,2.93-.13,5.84-.45,8.33-2.25A3.77,3.77,0,0,0,83.22,19.65Z"/><polygon class="cls-2" points="5.38 0 5.38 2.31 19.02 2.31 7.52 23.5 9.4 24.86 23.14 0 5.38 0"/><polygon class="cls-2" points="36.14 0 25.46 0 17.7 14.06 19.5 14.95 26.63 2.31 36.14 2.31 36.14 0"/></svg>