<svg width="112" height="36" viewBox="0 0 112 36" fill="none" xmlns="http://www.w3.org/2000/svg">
<rect width="112" height="36" rx="5" fill="white"/>
<path d="M106.219 34.0356H5.7898C3.71725 34.0356 2 32.3184 2 30.2458V5.7898C2 3.71725 3.68764 2 5.7898 2H106.219C108.292 2 110.068 3.68764 110.068 5.7898V30.2458C110.068 32.3184 108.322 34.0356 106.219 34.0356Z" fill="#A6A6A6"/>
<path d="M109.299 30.2458C109.299 31.9335 107.937 33.325 106.219 33.325H5.7899C4.10226 33.325 2.71069 31.9631 2.71069 30.2458V5.78979C2.71069 4.10215 4.10226 2.71059 5.7899 2.71059H106.219C107.907 2.71059 109.299 4.10215 109.299 5.78979V30.2458Z" fill="black"/>
<path d="M26.1305 17.8402C26.1008 15.2643 28.2326 13.9912 28.351 13.9319C27.1371 12.1555 25.2718 11.9186 24.6205 11.9186C23.0512 11.741 21.5116 12.8661 20.7122 12.8661C19.8832 12.8661 18.6693 11.9482 17.3369 11.9778C15.6197 12.0074 14.0209 12.9845 13.1326 14.5241C11.3266 17.6625 12.6589 22.2813 14.4058 24.8276C15.2644 26.0711 16.3007 27.4627 17.633 27.4035C18.9358 27.3443 19.4095 26.5745 20.9787 26.5745C22.5479 26.5745 22.992 27.4035 24.354 27.3739C25.7456 27.3443 26.6338 26.1304 27.4628 24.8572C28.4695 23.436 28.884 22.0149 28.884 21.9557C28.8248 21.9557 26.1305 20.949 26.1305 17.8402Z" fill="white"/>
<path d="M23.5544 10.2606C24.265 9.37234 24.7388 8.18802 24.5907 6.97411C23.5841 7.03332 22.3109 7.68469 21.5707 8.54332C20.9194 9.28351 20.3568 10.527 20.5048 11.6817C21.6595 11.7706 22.8143 11.1192 23.5544 10.2606Z" fill="white"/>
<path d="M44.9312 27.2258H43.1251L42.1184 24.0874H38.6543L37.7069 27.2258H35.9304L39.3649 16.567H41.4967L44.9312 27.2258ZM41.8224 22.7847L40.9341 20.0015C40.8453 19.7055 40.6677 19.0541 40.4012 17.9882H40.3716C40.2532 18.4323 40.1051 19.1133 39.8683 20.0015L38.98 22.7847H41.8224Z" fill="white"/>
<path d="M53.7543 23.288C53.7543 24.5907 53.399 25.627 52.6884 26.3968C52.0667 27.0778 51.2673 27.4035 50.3198 27.4035C49.3131 27.4035 48.5729 27.0482 48.1288 26.308H48.0992V30.3642H46.382V22.0741C46.382 21.245 46.3524 20.416 46.3228 19.5574H47.8328L47.9216 20.7713H47.9512C48.5137 19.8535 49.3724 19.4094 50.5567 19.4094C51.4745 19.4094 52.2147 19.7647 52.8365 20.4752C53.4582 21.1858 53.7543 22.1333 53.7543 23.288ZM52.0371 23.3472C52.0371 22.607 51.8594 21.9852 51.5337 21.5115C51.1784 21.0082 50.6751 20.7417 50.0533 20.7417C49.6388 20.7417 49.2539 20.8898 48.8986 21.1562C48.5433 21.4227 48.3361 21.8076 48.2177 22.2517C48.1584 22.459 48.1288 22.6366 48.1288 22.7847V24.0578C48.1288 24.6203 48.3065 25.0941 48.6322 25.479C48.9875 25.8639 49.4316 26.0415 49.9645 26.0415C50.6159 26.0415 51.1192 25.8046 51.4745 25.3013C51.8298 24.8276 52.0371 24.1762 52.0371 23.3472Z" fill="white"/>
<path d="M62.6071 23.288C62.6071 24.5907 62.2518 25.627 61.5412 26.3968C60.9194 27.0778 60.12 27.4035 59.1726 27.4035C58.1659 27.4035 57.4257 27.0482 56.9816 26.308H56.952V30.3642H55.2348V22.0741C55.2348 21.245 55.2051 20.416 55.1755 19.5574H56.6855L56.7744 20.7713H56.804C57.3665 19.8535 58.2251 19.4094 59.4094 19.4094C60.3273 19.4094 61.0675 19.7647 61.6892 20.4752C62.2814 21.1858 62.6071 22.1333 62.6071 23.288ZM60.8602 23.3472C60.8602 22.607 60.6826 21.9852 60.3569 21.5115C60.0016 21.0082 59.4983 20.7417 58.8765 20.7417C58.462 20.7417 58.0771 20.8898 57.7218 21.1562C57.3665 21.4227 57.1593 21.8076 57.0408 22.2517C56.9816 22.459 56.952 22.6366 56.952 22.7847V24.0578C56.952 24.6203 57.1296 25.0941 57.4553 25.479C57.8106 25.8639 58.2547 26.0415 58.7877 26.0415C59.4391 26.0415 59.9424 25.8046 60.2977 25.3013C60.6826 24.8276 60.8602 24.1762 60.8602 23.3472Z" fill="white"/>
<path d="M72.4665 24.2354C72.4665 25.1533 72.1409 25.8935 71.5191 26.456C70.8381 27.0778 69.8611 27.3739 68.6175 27.3739C67.4628 27.3739 66.545 27.1666 65.864 26.7225L66.2489 25.3013C66.9891 25.7454 67.8181 25.9823 68.7064 25.9823C69.3577 25.9823 69.8611 25.8343 70.2164 25.5382C70.5716 25.2421 70.7493 24.8572 70.7493 24.3835C70.7493 23.9394 70.6013 23.5841 70.3052 23.288C70.0091 22.9919 69.5354 22.7254 68.8248 22.459C66.9595 21.778 66.0417 20.7417 66.0417 19.4094C66.0417 18.5211 66.3673 17.8106 67.0187 17.248C67.6701 16.6855 68.5287 16.419 69.6242 16.419C70.6013 16.419 71.4007 16.5966 72.052 16.9223L71.6375 18.3139C71.0454 17.9882 70.3644 17.8106 69.5946 17.8106C69.0024 17.8106 68.5287 17.9586 68.203 18.2547C67.9069 18.5211 67.7885 18.8468 67.7885 19.2317C67.7885 19.6462 67.9366 20.0015 68.2918 20.268C68.5879 20.5345 69.0913 20.8009 69.8315 21.097C70.7493 21.4523 71.4303 21.8964 71.8448 22.3998C72.2593 22.8735 72.4665 23.4952 72.4665 24.2354Z" fill="white"/>
<path d="M78.1216 20.8306H76.2267V24.5611C76.2267 25.5086 76.5524 25.9823 77.2333 25.9823C77.5294 25.9823 77.7959 25.9527 78.0031 25.8935L78.0623 27.1962C77.7367 27.3147 77.2925 27.3739 76.73 27.3739C76.049 27.3739 75.5161 27.1666 75.1608 26.7521C74.7759 26.3376 74.5982 25.6566 74.5982 24.6796V20.801H73.4731V19.5278H74.5982V18.1066L76.2859 17.6033V19.5278H78.1808V20.8306H78.1216Z" fill="white"/>
<path d="M86.619 23.3176C86.619 24.5019 86.2933 25.479 85.6123 26.2192C84.9018 26.989 83.9543 27.4035 82.7996 27.4035C81.6745 27.4035 80.7863 27.0186 80.1053 26.2784C79.4243 25.5382 79.0986 24.5907 79.0986 23.436C79.0986 22.2517 79.4539 21.2747 80.1349 20.5049C80.8159 19.7351 81.7633 19.3798 82.918 19.3798C84.0431 19.3798 84.961 19.7647 85.642 20.5049C86.2933 21.245 86.619 22.1629 86.619 23.3176ZM84.8425 23.3768C84.8425 22.6662 84.6945 22.0741 84.3984 21.5411C84.0431 20.9194 83.5398 20.6233 82.8588 20.6233C82.1778 20.6233 81.6449 20.9194 81.2896 21.5411C80.9935 22.0445 80.8455 22.6662 80.8455 23.4064C80.8455 24.117 80.9935 24.7092 81.2896 25.2421C81.6449 25.8639 82.1778 26.1599 82.8292 26.1599C83.4806 26.1599 83.9839 25.8342 84.3688 25.2125C84.6649 24.7092 84.8425 24.0874 84.8425 23.3768Z" fill="white"/>
<path d="M92.1557 21.0378C91.978 21.0082 91.8004 20.9786 91.6228 20.9786C91.0306 20.9786 90.5569 21.2154 90.2312 21.6595C89.9351 22.0741 89.8167 22.5774 89.8167 23.1695V27.1962H88.0994L88.129 21.926C88.129 21.0378 88.0994 20.2384 88.0698 19.4982H89.5502L89.6094 20.9786H89.6686C89.8463 20.4752 90.1424 20.0607 90.5273 19.7647C90.9122 19.4982 91.3267 19.3501 91.7708 19.3501C91.9188 19.3501 92.0669 19.3501 92.1853 19.3798V21.0378H92.1557Z" fill="white"/>
<path d="M99.7944 23.0215C99.7944 23.3176 99.7648 23.5841 99.7352 23.7913H94.613C94.6427 24.5611 94.8795 25.1237 95.3532 25.5382C95.7974 25.8935 96.3303 26.0711 97.0409 26.0711C97.8107 26.0711 98.4917 25.9527 99.1134 25.7158L99.3799 26.9001C98.6397 27.2258 97.7811 27.3739 96.804 27.3739C95.6197 27.3739 94.6723 27.0186 93.9913 26.3376C93.3103 25.627 92.9846 24.7092 92.9846 23.5248C92.9846 22.3701 93.3103 21.3931 93.9321 20.6233C94.5834 19.7943 95.5013 19.3798 96.6264 19.3798C97.7219 19.3798 98.5805 19.7943 99.143 20.6233C99.5575 21.245 99.7944 22.0741 99.7944 23.0215ZM98.166 22.5774C98.166 22.0741 98.0772 21.6299 97.8403 21.2747C97.5442 20.8009 97.1001 20.5641 96.4783 20.5641C95.9158 20.5641 95.4717 20.8009 95.1164 21.245C94.8203 21.6003 94.6723 22.0445 94.613 22.5774H98.166Z" fill="white"/>
<path d="M41.2599 10.0237C41.2599 10.9712 40.9638 11.6817 40.4013 12.1555C39.8684 12.5996 39.1282 12.8068 38.1807 12.8068C37.707 12.8068 37.2925 12.7772 36.9668 12.7476V7.59587C37.4109 7.53665 37.8846 7.47743 38.4176 7.47743C39.3354 7.47743 40.0164 7.68469 40.4901 8.06959C40.9935 8.54331 41.2599 9.19468 41.2599 10.0237ZM40.3717 10.0533C40.3717 9.43155 40.2236 8.98743 39.898 8.66174C39.5723 8.33606 39.0986 8.15841 38.4768 8.15841C38.2103 8.15841 37.9735 8.18802 37.7958 8.21763V12.1259C37.8846 12.1555 38.0919 12.1555 38.3584 12.1555C39.0097 12.1555 39.4835 11.9778 39.8387 11.6225C40.194 11.2376 40.3717 10.7343 40.3717 10.0533Z" fill="white"/>
<path d="M45.9676 10.8527C45.9676 11.4449 45.79 11.9186 45.4643 12.2739C45.109 12.6588 44.6649 12.8365 44.0727 12.8365C43.5102 12.8365 43.0661 12.6588 42.7404 12.2739C42.4147 11.9186 42.2371 11.4449 42.2371 10.8823C42.2371 10.2902 42.4147 9.81647 42.7404 9.43156C43.0661 9.04666 43.5398 8.86902 44.1024 8.86902C44.6649 8.86902 45.109 9.04666 45.4347 9.43156C45.79 9.81647 45.9676 10.2902 45.9676 10.8527ZM45.0794 10.8823C45.0794 10.5271 44.9906 10.231 44.8425 9.99411C44.6649 9.69803 44.428 9.54999 44.1024 9.54999C43.7767 9.54999 43.5102 9.69803 43.3326 9.99411C43.1845 10.231 43.0957 10.5567 43.0957 10.912C43.0957 11.2672 43.1845 11.5633 43.3326 11.8002C43.5102 12.0963 43.7767 12.2443 44.1024 12.2443C44.428 12.2443 44.6649 12.0963 44.8425 11.7706C45.0202 11.5337 45.0794 11.208 45.0794 10.8823Z" fill="white"/>
<path d="M52.2443 8.98743L51.06 12.7476H50.2902L49.7869 11.1192C49.6685 10.7047 49.55 10.2902 49.4908 9.90527H49.4612C49.402 10.3198 49.2836 10.7343 49.1651 11.1192L48.6322 12.7476H47.8624L46.7373 8.98743H47.5959L48.0104 10.7935C48.0993 11.208 48.1881 11.6225 48.2769 12.0074H48.3065C48.3657 11.6817 48.4842 11.2968 48.6322 10.7935L49.1651 8.98743H49.8461L50.3495 10.7639C50.4679 11.208 50.5863 11.5929 50.6455 12.0074H50.6751C50.7344 11.6225 50.8232 11.208 50.9416 10.7639L51.3857 8.98743H52.2443Z" fill="white"/>
<path d="M56.5968 12.7476H55.7677V10.5862C55.7677 9.93487 55.5013 9.57958 54.9979 9.57958C54.7611 9.57958 54.5538 9.6684 54.4058 9.84605C54.2578 10.0237 54.1689 10.231 54.1689 10.4974V12.7476H53.3399V10.0533C53.3399 9.72762 53.3399 9.37232 53.3103 8.98742H54.0505L54.0801 9.57958H54.1097C54.1985 9.40193 54.3466 9.25389 54.5538 9.13546C54.7907 8.98742 55.0276 8.92821 55.3236 8.92821C55.6789 8.92821 55.975 9.04664 56.2119 9.2835C56.5079 9.54997 56.656 9.99409 56.656 10.527V12.7476H56.5968Z" fill="white"/>
<path d="M58.9062 7.27019H58.0771V12.7772H58.9062V7.27019Z" fill="white"/>
<path d="M63.8507 10.8527C63.8507 11.4449 63.6731 11.9186 63.3474 12.2739C62.9921 12.6588 62.548 12.8365 61.9558 12.8365C61.3933 12.8365 60.9491 12.6588 60.6235 12.2739C60.2978 11.9186 60.1201 11.4449 60.1201 10.8823C60.1201 10.2902 60.2978 9.81647 60.6235 9.43156C60.9491 9.04666 61.4229 8.86902 61.9854 8.86902C62.548 8.86902 62.9921 9.04666 63.3178 9.43156C63.6731 9.81647 63.8507 10.2902 63.8507 10.8527ZM62.9625 10.8823C62.9625 10.5271 62.8736 10.231 62.7256 9.99411C62.548 9.69803 62.3111 9.54999 61.9854 9.54999C61.6597 9.54999 61.3933 9.69803 61.2156 9.99411C61.0676 10.231 60.9787 10.5567 60.9787 10.912C60.9787 11.2672 61.0676 11.5633 61.2156 11.8002C61.3933 12.0963 61.6597 12.2443 61.9854 12.2443C62.3111 12.2443 62.548 12.0963 62.7256 11.7706C62.9033 11.5337 62.9625 11.208 62.9625 10.8823Z" fill="white"/>
<path d="M67.9068 12.7476H67.1666L67.1074 12.3035H67.0778C66.8114 12.6588 66.4561 12.8365 65.9823 12.8365C65.627 12.8365 65.331 12.718 65.1237 12.4812C64.9165 12.2739 64.8276 12.0074 64.8276 11.7114C64.8276 11.2376 65.0053 10.912 65.4198 10.6455C65.8047 10.4086 66.3376 10.2902 67.0482 10.2902V10.231C67.0482 9.72764 66.7817 9.49078 66.2784 9.49078C65.8935 9.49078 65.5678 9.57961 65.3014 9.75725L65.1237 9.1947C65.479 8.98745 65.8935 8.86902 66.4265 8.86902C67.4035 8.86902 67.9068 9.40195 67.9068 10.4382V11.8298C67.8476 12.2443 67.8772 12.5404 67.9068 12.7476ZM67.0482 11.4745V10.8823C66.1304 10.8527 65.6567 11.1192 65.6567 11.6521C65.6567 11.8594 65.7159 12.0074 65.8047 12.0963C65.9231 12.1851 66.0415 12.2443 66.2192 12.2443C66.3968 12.2443 66.5745 12.1851 66.7225 12.0667C66.8706 11.9482 66.989 11.8002 67.0186 11.6225L67.0482 11.4745Z" fill="white"/>
<path d="M72.6739 12.7476H71.9337L71.904 12.1555H71.8744C71.6376 12.6292 71.2231 12.8365 70.6605 12.8365C70.2164 12.8365 69.8315 12.6588 69.5354 12.3035C69.2393 11.9482 69.0913 11.4745 69.0913 10.9119C69.0913 10.2902 69.2393 9.81646 69.5946 9.43156C69.9203 9.07627 70.3052 8.89862 70.7493 8.89862C71.2527 8.89862 71.608 9.07626 71.8152 9.40195H71.8448V7.24059H72.6739V11.741C72.6442 12.1259 72.6442 12.4516 72.6739 12.7476ZM71.8152 11.1784V10.5567C71.8152 10.4382 71.8152 10.3494 71.7856 10.2902C71.7264 10.0829 71.6376 9.90528 71.4895 9.78685C71.3415 9.63881 71.1342 9.5796 70.927 9.5796C70.6013 9.5796 70.3644 9.69803 70.1868 9.9645C70.0091 10.2014 69.9203 10.527 69.9203 10.9119C69.9203 11.2968 70.0091 11.5929 70.1868 11.8298C70.3644 12.0667 70.6013 12.2147 70.927 12.2147C71.1935 12.2147 71.4303 12.1259 71.5784 11.9186C71.7264 11.6817 71.8152 11.4449 71.8152 11.1784Z" fill="white"/>
<path d="M79.8387 10.8527C79.8387 11.4449 79.6611 11.9186 79.3354 12.2739C78.9801 12.6588 78.536 12.8365 77.9438 12.8365C77.3813 12.8365 76.9372 12.6588 76.6115 12.2739C76.2858 11.9186 76.1082 11.4449 76.1082 10.8823C76.1082 10.2902 76.2858 9.81647 76.6115 9.43156C76.9372 9.04666 77.4109 8.86902 77.9734 8.86902C78.536 8.86902 78.9801 9.04666 79.3058 9.43156C79.6907 9.81647 79.8387 10.2902 79.8387 10.8527ZM78.9801 10.8823C78.9801 10.5271 78.8913 10.231 78.7433 9.99411C78.5656 9.69803 78.3287 9.54999 78.0031 9.54999C77.6774 9.54999 77.4109 9.69803 77.2333 9.99411C77.0852 10.231 76.9964 10.5567 76.9964 10.912C76.9964 11.2672 77.0852 11.5633 77.2333 11.8002C77.4109 12.0963 77.6774 12.2443 78.0031 12.2443C78.3287 12.2443 78.5656 12.0963 78.7433 11.7706C78.8913 11.5337 78.9801 11.208 78.9801 10.8823Z" fill="white"/>
<path d="M84.3687 12.7476H83.5397V10.5862C83.5397 9.93487 83.2732 9.57958 82.7699 9.57958C82.5331 9.57958 82.3258 9.6684 82.1778 9.84605C82.0297 10.0237 81.9409 10.231 81.9409 10.4974V12.7476H81.1119V10.0533C81.1119 9.72762 81.1119 9.37232 81.0823 8.98742H81.8225L81.8521 9.57958H81.8817C81.9705 9.40193 82.1185 9.25389 82.3258 9.13546C82.5627 8.98742 82.7995 8.92821 83.0956 8.92821C83.4509 8.92821 83.747 9.04664 83.9838 9.2835C84.2799 9.54997 84.428 9.99409 84.428 10.527V12.7476H84.3687Z" fill="white"/>
<path d="M89.9944 9.6092H89.0766V11.4449C89.0766 11.9186 89.2542 12.1555 89.5799 12.1555C89.7279 12.1555 89.8464 12.1555 89.9648 12.1259L89.9944 12.7476C89.8168 12.8068 89.6095 12.8364 89.343 12.8364C89.0173 12.8364 88.7509 12.7476 88.5732 12.5404C88.3956 12.3331 88.3068 12.0074 88.3068 11.5337V9.6388H87.7146V9.01704H88.2771V8.33606L89.1062 8.0992V9.04665H90.024L89.9944 9.6092Z" fill="white"/>
<path d="M94.4356 12.7476H93.6065V10.6159C93.6065 9.93489 93.3401 9.6092 92.8367 9.6092C92.4518 9.6092 92.1854 9.81646 92.0373 10.2014C92.0077 10.2902 92.0077 10.379 92.0077 10.4974V12.7772H91.1787V7.27019H92.0077V9.54999H92.0373C92.3038 9.13548 92.6887 8.92822 93.1624 8.92822C93.5177 8.92822 93.7842 9.04665 94.021 9.28352C94.3171 9.57959 94.4356 9.9941 94.4356 10.5567V12.7476Z" fill="white"/>
<path d="M99.0248 10.7047C99.0248 10.8527 99.0248 10.9712 98.9952 11.0896H96.4785C96.4785 11.4745 96.5969 11.741 96.8338 11.9482C97.041 12.1259 97.3075 12.2147 97.6628 12.2147C98.0477 12.2147 98.3734 12.1555 98.6695 12.037L98.7879 12.6292C98.4326 12.7772 98.0181 12.8661 97.5148 12.8661C96.9226 12.8661 96.4785 12.6884 96.1232 12.3627C95.7975 12.0074 95.6199 11.5633 95.6199 10.9712C95.6199 10.4086 95.7679 9.93488 96.0936 9.54998C96.4193 9.13547 96.8634 8.95782 97.4259 8.95782C97.9589 8.95782 98.3734 9.16508 98.6695 9.54998C98.9063 9.81645 99.0248 10.231 99.0248 10.7047ZM98.2254 10.4678C98.2254 10.231 98.1661 9.9941 98.0773 9.81645C97.9293 9.57959 97.722 9.46116 97.3963 9.46116C97.1299 9.46116 96.893 9.57959 96.7154 9.81645C96.5673 9.9941 96.5081 10.2014 96.4785 10.4678H98.2254Z" fill="white"/>
</svg>
