<svg xmlns="http://www.w3.org/2000/svg"><defs><style>.icon { display: none; }.icon:target { display: inline; }</style></defs><svg viewBox="0 0 32.090843 32.24542"><g id="src-1" class="icon"><defs><style>.covid-blue-1 { fill: rgb(53, 39, 102); }.covid-blue-2 { fill: rgb(55, 52, 125); }.covid-blue-3 { fill: rgb(56, 63, 147); }</style></defs><title>covid-icon</title><g id="_Group_" data-name=" Group "><circle id="_Ellipse_" data-name=" Ellipse " class="covid-blue-1" cx="15.99" cy="16.24" r="9.7" transform="translate(-5.86 22.74) rotate(-62.01)"/><circle id="_Ellipse_2" data-name=" Ellipse 2" class="covid-blue-2" cx="15.99" cy="16.24" r="6.79" transform="translate(-5.86 22.74) rotate(-62.01)"/><g id="_Group_2" data-name=" Group 2"><path id="_Path_" data-name=" Path " class="covid-blue-1" d="M22.12,8.87A9.8,9.8,0,0,0,18.65,7a1.12,1.12,0,0,0,1.18-.5h0l.66-1.23h0A2.54,2.54,0,1,1,24.82,5a2.64,2.64,0,0,1-2.29,1.34l-.67,1.26A1.15,1.15,0,0,0,22.12,8.87Z"/></g><g id="_Group_3" data-name=" Group 3"><path id="_Path_2" data-name=" Path 2" class="covid-blue-1" d="M25.58,15.36a9.8,9.8,0,0,0-1.15-3.76,1.12,1.12,0,0,0,1.18.48h0L27,11.66h0a2.54,2.54,0,1,1,3.2,2.86,2.64,2.64,0,0,1-2.56-.66l-1.37.42A1.15,1.15,0,0,0,25.58,15.36Z"/></g><g id="_Group_4" data-name=" Group 4"><path id="_Path_3" data-name=" Path 3" class="covid-blue-1" d="M23.35,22.38a9.8,9.8,0,0,0,1.84-3.47,1.12,1.12,0,0,0,.5,1.18h0l1.23.66h0a2.54,2.54,0,1,1,.26,4.32,2.64,2.64,0,0,1-1.34-2.29l-1.26-.67A1.15,1.15,0,0,0,23.35,22.38Z"/></g><g id="_Group_5" data-name=" Group 5"><path id="_Path_4" data-name=" Path 4" class="covid-blue-1" d="M16.86,25.83a9.8,9.8,0,0,0,3.76-1.15,1.12,1.12,0,0,0-.48,1.18h0l.42,1.34h0a2.54,2.54,0,1,1-2.86,3.2,2.64,2.64,0,0,1,.66-2.56l-.42-1.37A1.15,1.15,0,0,0,16.86,25.83Z"/></g><g id="_Group_6" data-name=" Group 6"><path id="_Path_5" data-name=" Path 5" class="covid-blue-1" d="M9.85,23.61a9.8,9.8,0,0,0,3.47,1.84,1.12,1.12,0,0,0-1.18.5h0l-.66,1.23h0a2.54,2.54,0,1,1-4.32.26,2.64,2.64,0,0,1,2.29-1.34l.67-1.26A1.15,1.15,0,0,0,9.85,23.61Z"/></g><g id="_Group_7" data-name=" Group 7"><path id="_Path_6" data-name=" Path 6" class="covid-blue-1" d="M6.39,17.12a9.8,9.8,0,0,0,1.15,3.76,1.12,1.12,0,0,0-1.18-.48h0L5,20.81H5a2.54,2.54,0,1,1-3.2-2.86,2.64,2.64,0,0,1,2.56.66l1.37-.42A1.15,1.15,0,0,0,6.39,17.12Z"/></g><g id="_Group_8" data-name=" Group 8"><path id="_Path_7" data-name=" Path 7" class="covid-blue-1" d="M8.61,10.1a9.8,9.8,0,0,0-1.84,3.47,1.12,1.12,0,0,0-.5-1.18h0L5,11.73H5A2.54,2.54,0,1,1,4.79,7.4,2.64,2.64,0,0,1,6.14,9.68l1.26.67A1.15,1.15,0,0,0,8.61,10.1Z"/></g><g id="_Group_9" data-name=" Group 9"><path id="_Path_8" data-name=" Path 8" class="covid-blue-1" d="M15.1,6.65A9.8,9.8,0,0,0,11.35,7.8a1.12,1.12,0,0,0,.5-1.15h0L11.43,5.3h0a2.54,2.54,0,1,1,2.86-3.2,2.64,2.64,0,0,1-.66,2.56L14,6A1.15,1.15,0,0,0,15.1,6.65Z"/></g><circle id="_Ellipse_3" data-name=" Ellipse 3" class="covid-blue-1" cx="3.93" cy="2.08" r="1.77" transform="translate(0.25 4.58) rotate(-62.01)"/><circle id="_Ellipse_4" data-name=" Ellipse 4" class="covid-blue-1" cx="3.9" cy="25.9" r="1.26" transform="translate(-20.8 17.18) rotate(-62.01)"/><circle id="_Ellipse_5" data-name=" Ellipse 5" class="covid-blue-1" cx="28.32" cy="30" r="1.77" transform="translate(-11.46 40.93) rotate(-62.01)"/><path id="_Path_9" data-name=" Path 9" class="covid-blue-3" d="M22.11,19.43a5.37,5.37,0,0,1-7.82,2.81A7.43,7.43,0,0,1,11.91,13a5.37,5.37,0,0,1,7.82-2.81A7.43,7.43,0,0,1,22.11,19.43Z"/><circle id="_Ellipse_6" data-name=" Ellipse 6" class="covid-blue-1" cx="14.89" cy="15.14" r="1.77" transform="translate(-5.47 21.18) rotate(-62.01)"/><circle id="_Ellipse_7" data-name=" Ellipse 7" class="covid-blue-1" cx="16.43" cy="19.32" r="0.88" transform="translate(-8.34 24.76) rotate(-62.01)"/><circle id="_Ellipse_8" data-name=" Ellipse 8" class="covid-blue-1" cx="19.26" cy="16.47" r="0.78" transform="matrix(0.47, -0.88, 0.88, 0.47, -4.33, 25.75)"/></g></g></svg><svg viewBox="0 0 32.08566 32.085407"><g id="src-2" class="icon"><defs><style>.covid-1 { fill: rgb(235, 85, 105); }.covid-2 { fill: rgb(240, 114, 129); }.covid-3 { fill: rgb(245, 138, 151); }</style></defs><title>covid-icon</title><g id="_Group_" data-name="&lt;Group&gt;"><circle id="_Ellipse_" data-name="&lt;Ellipse&gt;" class="covid-1" cx="16" cy="16" r="9.72" transform="translate(-5.64 22.62) rotate(-62.01)"/><circle id="_Ellipse_2" data-name="&lt;Ellipse&gt;" class="covid-2" cx="16" cy="16" r="6.8" transform="translate(-5.64 22.62) rotate(-62.01)"/><g id="_Group_2" data-name="&lt;Group&gt;"><path id="_Path_" data-name="&lt;Path&gt;" class="covid-1" d="M22.14,8.62a9.81,9.81,0,0,0-3.47-1.84,1.13,1.13,0,0,0,1.18-.5v0L20.52,5h0a2.54,2.54,0,1,1,4.31-.26,2.64,2.64,0,0,1-2.28,1.34l-.68,1.27A1.15,1.15,0,0,0,22.14,8.62Z"/></g><g id="_Group_3" data-name="&lt;Group&gt;"><path id="_Path_2" data-name="&lt;Path&gt;" class="covid-1" d="M25.56,15.13a9.81,9.81,0,0,0-1.15-3.75,1.13,1.13,0,0,0,1.19.48h0L27,11.43h0a2.54,2.54,0,1,1,3.24,2.86,2.64,2.64,0,0,1-2.56-.66l-1.38.42A1.15,1.15,0,0,0,25.56,15.13Z"/></g><g id="_Group_4" data-name="&lt;Group&gt;"><path id="_Path_3" data-name="&lt;Path&gt;" class="covid-1" d="M23.38,22.14a9.81,9.81,0,0,0,1.84-3.47,1.13,1.13,0,0,0,.5,1.18h0l1.23.66h0a2.54,2.54,0,1,1,.26,4.31,2.64,2.64,0,0,1-1.34-2.28l-1.27-.68A1.15,1.15,0,0,0,23.38,22.14Z"/></g><g id="_Group_5" data-name="&lt;Group&gt;"><path id="_Path_4" data-name="&lt;Path&gt;" class="covid-1" d="M16.87,25.56a9.81,9.81,0,0,0,3.75-1.15,1.13,1.13,0,0,0-.48,1.19v0L20.57,27h0a2.54,2.54,0,1,1-2.86,3.24,2.64,2.64,0,0,1,.66-2.56l-.42-1.38A1.15,1.15,0,0,0,16.87,25.56Z"/></g><g id="_Group_6" data-name="&lt;Group&gt;"><path id="_Path_5" data-name="&lt;Path&gt;" class="covid-1" d="M9.86,23.38a9.81,9.81,0,0,0,3.47,1.84,1.13,1.13,0,0,0-1.18.5v0L11.48,27h0a2.54,2.54,0,1,1-4.31.26,2.64,2.64,0,0,1,2.28-1.34l.68-1.27A1.15,1.15,0,0,0,9.86,23.38Z"/></g><g id="_Group_7" data-name="&lt;Group&gt;"><path id="_Path_6" data-name="&lt;Path&gt;" class="covid-1" d="M6.44,16.87a9.81,9.81,0,0,0,1.15,3.75,1.13,1.13,0,0,0-1.19-.48h0L5,20.57H5A2.54,2.54,0,1,1,1.8,17.69a2.64,2.64,0,0,1,2.56.66l1.38-.42A1.15,1.15,0,0,0,6.44,16.87Z"/></g><g id="_Group_8" data-name="&lt;Group&gt;"><path id="_Path_7" data-name="&lt;Path&gt;" class="covid-1" d="M8.62,9.86a9.81,9.81,0,0,0-1.84,3.47,1.13,1.13,0,0,0-.5-1.18h0L5,11.48H5a2.54,2.54,0,1,1-.26-4.31A2.64,2.64,0,0,1,6.11,9.43l1.27.68A1.15,1.15,0,0,0,8.62,9.86Z"/></g><g id="_Group_9" data-name="&lt;Group&gt;"><path id="_Path_8" data-name="&lt;Path&gt;" class="covid-1" d="M15.13,6.44a9.81,9.81,0,0,0-3.75,1.15,1.13,1.13,0,0,0,.48-1.19v0L11.43,5h0A2.54,2.54,0,1,1,14.31,1.8a2.64,2.64,0,0,1-.66,2.56l.42,1.38A1.15,1.15,0,0,0,15.13,6.44Z"/></g><circle id="_Ellipse_3" data-name="&lt;Ellipse&gt;" class="covid-1" cx="3.94" cy="1.83" r="1.77" transform="translate(0.48 4.45) rotate(-62.01)"/><circle id="_Ellipse_4" data-name="&lt;Ellipse&gt;" class="covid-1" cx="3.91" cy="25.66" r="1.27" transform="translate(-20.59 17.07) rotate(-62.01)"/><circle id="_Ellipse_5" data-name="&lt;Ellipse&gt;" class="covid-1" cx="28.35" cy="29.77" r="1.77" transform="translate(-11.24 40.83) rotate(-62.01)"/><path id="_Path_9" data-name="&lt;Path&gt;" class="covid-3" d="M22.13,19.19c-1.5,3.32-5,4.58-7.82,2.81s-3.89-5.88-2.39-9.2,5-4.58,7.82-2.81S23.63,15.87,22.13,19.19Z"/><circle id="_Ellipse_6" data-name="&lt;Ellipse&gt;" class="covid-1" cx="14.91" cy="14.91" r="1.77" transform="translate(-5.26 21.08) rotate(-62.01)"/><circle id="_Ellipse_7" data-name="&lt;Ellipse&gt;" class="covid-1" cx="16.45" cy="19.09" r="0.88" transform="translate(-8.13 24.65) rotate(-62.01)"/><circle id="_Ellipse_8" data-name="&lt;Ellipse&gt;" class="covid-1" cx="19.29" cy="16.22" r="0.78" transform="translate(-4.09 25.64) rotate(-62.01)"/></g></g></svg><svg viewBox="0 0 32 29.984121"><g id="src-3" class="icon">
<defs><style>.share-1 { fill: none; }.share-2 { clip-path: url("#clip-path"); }.share-3 { fill: rgb(255, 255, 255); }.share-4 { fill: rgb(44, 73, 141); }</style>
<clipPath id="clip-path"><rect class="share-1" y="2" width="32" height="28"/></clipPath></defs>
<title>share_icon</title>
<g class="share-2"><path class="share-3" d="M16,14.4a5.26,5.26,0,0,0-5.15,4.35h10.3A5.26,5.26,0,0,0,16,14.4"/>
<path class="share-3" d="M16,7a2.8,2.8,0,1,0,2.77,2.83v0A2.78,2.78,0,0,0,16,7h0"/>
<path class="share-3" d="M29.23,2H2.77A2.78,2.78,0,0,0,0,4.8H0V22.22A2.78,2.78,0,0,0,2.77,25h9.07l3.41,4.61a.91.91,0,0,0,1.47,0L20.13,25H29.2A2.78,2.78,0,0,0,32,22.26s0,0,0,0V4.8A2.78,2.78,0,0,0,29.23,2h0M22.16,20.67H9.84a.93.93,0,0,1-.93-.93,7.17,7.17,0,0,1,4-6.4,4.61,4.61,0,1,1,6.1,0,7.17,7.17,0,0,1,4,6.4.93.93,0,0,1-.93.93"/></g>
<path class="share-4" d="M30.56,7.26h-3.2V4a.75.75,0,1,0-1.49,0v3.3h-3.2a.75.75,0,1,0,0,1.5h3.2v3.3a.75.75,0,1,0,1.49,0V8.77h3.2a.75.75,0,0,0,0-1.5Z"/></g></svg><svg viewBox="0 0 24.339998 31.87525"><g id="src-4" class="icon"><defs><style>.keyicon { fill: rgb(255, 255, 255); }</style></defs><title>login-reg-icon</title><path class="keyicon" d="M24.34,8.34a8.34,8.34,0,1,0-10.17,8.13V30.16a1.84,1.84,0,0,0,3.67,0v-.59h2.47a1.22,1.22,0,1,0,0-2.43h0a.43.43,0,0,1-.43-.43V26a.43.43,0,0,1,.43-.43h0a1.22,1.22,0,1,0,0-2.43H17.84V16.47A8.35,8.35,0,0,0,24.34,8.34ZM16,13a4.69,4.69,0,1,1,4.69-4.69A4.69,4.69,0,0,1,16,13Z"/></g></svg><svg viewBox="0 0 24.339998 31.87525"><g id="src-5" class="icon"><defs><style>.access-blue { fill: rgb(57, 84, 148); }</style></defs><title>access_icon</title><path class="access-blue" d="M24.34,8.34a8.34,8.34,0,1,0-10.17,8.13V30.16a1.84,1.84,0,0,0,3.67,0v-.59h2.47a1.22,1.22,0,1,0,0-2.43h0a.43.43,0,0,1-.43-.43V26a.43.43,0,0,1,.43-.43h0a1.22,1.22,0,1,0,0-2.43H17.84V16.47A8.35,8.35,0,0,0,24.34,8.34ZM16,13a4.69,4.69,0,1,1,4.69-4.69A4.69,4.69,0,0,1,16,13Z"/></g></svg><svg viewBox="0 0 32.032238 28.11226"><g id="src-6" class="icon"><defs><style>.campaign-icon { fill: rgb(255, 255, 255); }</style></defs><title>campaign-icon</title><g id="Email_maketing" data-name="Email maketing"><path class="campaign-icon" d="M19.79,5.23l1.55-.42,4.17,15.54L24,20.77Z"/><path class="campaign-icon" d="M8.54,13l1.79,6.69,12,1.16L18.33,6Z"/><path class="campaign-icon" d="M8.63,28a.8.8,0,0,0,1.18-.9L8.35,21.62,6.8,22l1.46,5.44A.8.8,0,0,0,8.63,28Z"/><path class="campaign-icon" d="M7.05,13.65,2.39,14.9a3.22,3.22,0,1,0,1.67,6.22l4.67-1.25Z"/><path class="campaign-icon" d="M26.53,11.76a.8.8,0,0,0,.78.6l.21,0,3.11-.83a.8.8,0,1,0-.42-1.55l-3.11.83a.8.8,0,0,0-.57,1Z"/><path class="campaign-icon" d="M25.59,7.82a.8.8,0,0,0,.57-.24l2.28-2.28a.8.8,0,0,0-1.12-1.16l0,0L25,6.44a.8.8,0,0,0,.57,1.37Z"/><path class="campaign-icon" d="M27.31,16.13a.8.8,0,0,0,.57,1h0l3.11.83.21,0a.8.8,0,0,0,.21-1.58l-3.11-.83a.8.8,0,0,0-1,.57h0Z"/></g></g></svg><svg viewBox="0 0 32.032238 28.11226"><g id="src-7" class="icon"><defs><style>.campaign-blue-icon { fill: rgb(29, 58, 124); }</style></defs><title>campaign-icon</title><g id="Email_maketing" data-name="Email maketing"><path class="campaign-blue-icon" d="M19.79,5.23l1.55-.42,4.17,15.54L24,20.77Z"/><path class="campaign-blue-icon" d="M8.54,13l1.79,6.69,12,1.16L18.33,6Z"/><path class="campaign-blue-icon" d="M8.63,28a.8.8,0,0,0,1.18-.9L8.35,21.62,6.8,22l1.46,5.44A.8.8,0,0,0,8.63,28Z"/><path class="campaign-blue-icon" d="M7.05,13.65,2.39,14.9a3.22,3.22,0,1,0,1.67,6.22l4.67-1.25Z"/><path class="campaign-blue-icon" d="M26.53,11.76a.8.8,0,0,0,.78.6l.21,0,3.11-.83a.8.8,0,1,0-.42-1.55l-3.11.83a.8.8,0,0,0-.57,1Z"/><path class="campaign-blue-icon" d="M25.59,7.82a.8.8,0,0,0,.57-.24l2.28-2.28a.8.8,0,0,0-1.12-1.16l0,0L25,6.44a.8.8,0,0,0,.57,1.37Z"/><path class="campaign-blue-icon" d="M27.31,16.13a.8.8,0,0,0,.57,1h0l3.11.83.21,0a.8.8,0,0,0,.21-1.58l-3.11-.83a.8.8,0,0,0-1,.57h0Z"/></g></g></svg><svg viewBox="0 0 444.6684 491.97998"><g id="src-8" class="icon"><defs><style>.dicon { fill: rgb(255, 255, 255); }</style></defs><title>disabled</title><g id="_Group_" data-name="&lt;Group&gt;"><path id="_Path_" data-name="&lt;Path&gt;" class="dicon" d="M225.32,97a48.48,48.48,0,1,0-48.49-48.48A48.5,48.5,0,0,0,225.32,97Z"/><path id="_Path_2" data-name="&lt;Path&gt;" class="dicon" d="M300.23,371.69A107.16,107.16,0,1,1,154.14,244V198.58C92.45,217.16,47.38,274.43,47.38,342.08c0,82.65,67.25,149.9,149.91,149.9,60.24,0,112.16-35.8,136-87.17l-16.93-33.26Z"/><path id="_Path_3" data-name="&lt;Path&gt;" class="dicon" d="M441.48,429.24,376.54,301.57A28.43,28.43,0,0,0,351.18,286H268V267h71.58a22.39,22.39,0,0,0,21.35-21.35,21.35,21.35,0,0,0-21.35-21.35H268V160c0-17.69-13.12-42.7-42.69-42.7a42.71,42.71,0,0,0-42.7,42.7V299.37a43.56,43.56,0,0,0,43.56,43.56H333.72l57,112.12a28.46,28.46,0,1,0,50.73-25.81Z"/></g></g></svg><svg viewBox="0 0 444.6684 491.97998"><g id="src-9" class="icon"><defs><style>.disable-blue { fill: rgb(57, 84, 148); }</style></defs><title>disabled</title><g id="_Group_" data-name="&lt;Group&gt;"><path id="_Path_" data-name="&lt;Path&gt;" class="disable-blue" d="M225.32,97a48.48,48.48,0,1,0-48.49-48.48A48.5,48.5,0,0,0,225.32,97Z"/><path id="_Path_2" data-name="&lt;Path&gt;" class="disable-blue" d="M300.23,371.69A107.16,107.16,0,1,1,154.14,244V198.58C92.45,217.16,47.38,274.43,47.38,342.08c0,82.65,67.25,149.9,149.91,149.9,60.24,0,112.16-35.8,136-87.17l-16.93-33.26Z"/><path id="_Path_3" data-name="&lt;Path&gt;" class="disable-blue" d="M441.48,429.24,376.54,301.57A28.43,28.43,0,0,0,351.18,286H268V267h71.58a22.39,22.39,0,0,0,21.35-21.35,21.35,21.35,0,0,0-21.35-21.35H268V160c0-17.69-13.12-42.7-42.69-42.7a42.71,42.71,0,0,0-42.7,42.7V299.37a43.56,43.56,0,0,0,43.56,43.56H333.72l57,112.12a28.46,28.46,0,1,0,50.73-25.81Z"/></g></g></svg><svg viewBox="0 0 32.007347 31.961626"><g id="src-10" class="icon"><defs><style>.language-blue { fill: rgb(57, 84, 148); }</style></defs><title>language_icon</title><path class="language-blue" d="M14,7.32h0a.66.66,0,0,0-.66.66v3.36h-.69v-.06A4.52,4.52,0,0,0,8,7.33a.66.66,0,1,0,.1,1.31,3.2,3.2,0,0,1,3.29,2.7H4.66a.66.66,0,0,0-.49.22.65.65,0,0,0-.16.5A4.4,4.4,0,0,0,5.63,15a4.34,4.34,0,0,0,2.71,1l.4,0a4.52,4.52,0,0,0,3.81-3.3h.81v2.66a.66.66,0,0,0,1.31,0V8A.66.66,0,0,0,14,7.32ZM8.59,14.65A3,3,0,0,1,6.45,14a3.14,3.14,0,0,1-1-1.31h5.68a3.18,3.18,0,0,1-2.58,2Zm18,6.92-3.3-6.52a.66.66,0,0,0-.58-.36.65.65,0,0,0-.58.36l-3.35,6.67a.65.65,0,0,0,.29.88h0a.67.67,0,0,0,.3.07.64.64,0,0,0,.58-.36L21.11,20h3.24l1.09,2.15a.65.65,0,0,0,.88.29h0a.66.66,0,0,0,.29-.89h0ZM21.77,18.7l1-1.9,1,1.9H21.77Zm10.12-.83A9.29,9.29,0,0,0,18.61,11,9.34,9.34,0,1,0,9.36,21.32a9.24,9.24,0,0,0,4.05-.93,9.39,9.39,0,0,0,6.93,8h0a9.52,9.52,0,0,0,2.26.28,9.39,9.39,0,0,0,9.28-10.82ZM9.36,20a8,8,0,1,1,8-8v0A8,8,0,0,1,9.36,20Zm20.33,3.2a8,8,0,0,1-15-3.56,9.34,9.34,0,0,0,4-7.23,8,8,0,0,1,11,10.79Zm-17,4.72h0l0-.07h0l0-.07v0l0,0v0l0-.06-.05-.06h0l0,0h0l0,0h0l-.07,0L8.92,26.07a.65.65,0,0,0-.49,1.21l2.24.9a4.44,4.44,0,0,1-4,.1h0A4.56,4.56,0,0,1,4,24a.66.66,0,0,0-1.31,0,5.86,5.86,0,0,0,3.38,5.47A5.73,5.73,0,0,0,8.55,30a5.82,5.82,0,0,0,2.1-.4l-.6,1.46a.65.65,0,0,0,.61.9.66.66,0,0,0,.61-.41l1.35-3.31v0a0,0,0,0,1,0,0h0a.2.2,0,0,0,0-.05,0,0,0,0,1,0,0s0-.05,0-.08V28s0,0,0-.06ZM19.37,4.09h0l0,.07h0l0,.07v0l0,0v0l0,.06.05.06h0l0,0h0l0,0h0l.07,0,3.35,1.35a.65.65,0,0,0,.49-1.21l-2.24-.9a4.44,4.44,0,0,1,4-.1h0A4.56,4.56,0,0,1,28,8a.65.65,0,0,0,.64.67h0A.66.66,0,0,0,29.33,8a5.86,5.86,0,0,0-3.38-5.48h0a5.73,5.73,0,0,0-4.56-.16L22,.91A.66.66,0,0,0,20.76.42h0L19.41,3.73v0a.2.2,0,0,0,0,.05,0,0,0,0,1,0,0s0,.05,0,.08V4s0,0,0,.06Z"/></g></svg><svg viewBox="0 0 32.007347 31.961626"><g id="src-11" class="icon"><defs><style>.langicon { fill: rgb(255, 255, 255); }</style></defs><title>language_icon</title><path class="langicon" d="M14,7.32h0a.66.66,0,0,0-.66.66v3.36h-.69v-.06A4.52,4.52,0,0,0,8,7.33a.66.66,0,1,0,.1,1.31,3.2,3.2,0,0,1,3.29,2.7H4.66a.66.66,0,0,0-.49.22.65.65,0,0,0-.16.5A4.4,4.4,0,0,0,5.63,15a4.34,4.34,0,0,0,2.71,1l.4,0a4.52,4.52,0,0,0,3.81-3.3h.81v2.66a.66.66,0,0,0,1.31,0V8A.66.66,0,0,0,14,7.32ZM8.59,14.65A3,3,0,0,1,6.45,14a3.14,3.14,0,0,1-1-1.31h5.68a3.18,3.18,0,0,1-2.58,2Zm18,6.92-3.3-6.52a.66.66,0,0,0-.58-.36.65.65,0,0,0-.58.36l-3.35,6.67a.65.65,0,0,0,.29.88h0a.67.67,0,0,0,.3.07.64.64,0,0,0,.58-.36L21.11,20h3.24l1.09,2.15a.65.65,0,0,0,.88.29h0a.66.66,0,0,0,.29-.89h0ZM21.77,18.7l1-1.9,1,1.9H21.77Zm10.12-.83A9.29,9.29,0,0,0,18.61,11,9.34,9.34,0,1,0,9.36,21.32a9.24,9.24,0,0,0,4.05-.93,9.39,9.39,0,0,0,6.93,8h0a9.52,9.52,0,0,0,2.26.28,9.39,9.39,0,0,0,9.28-10.82ZM9.36,20a8,8,0,1,1,8-8v0A8,8,0,0,1,9.36,20Zm20.33,3.2a8,8,0,0,1-15-3.56,9.34,9.34,0,0,0,4-7.23,8,8,0,0,1,11,10.79Zm-17,4.72h0l0-.07h0l0-.07v0l0,0v0l0-.06-.05-.06h0l0,0h0l0,0h0l-.07,0L8.92,26.07a.65.65,0,0,0-.49,1.21l2.24.9a4.44,4.44,0,0,1-4,.1h0A4.56,4.56,0,0,1,4,24a.66.66,0,0,0-1.31,0,5.86,5.86,0,0,0,3.38,5.47A5.73,5.73,0,0,0,8.55,30a5.82,5.82,0,0,0,2.1-.4l-.6,1.46a.65.65,0,0,0,.61.9.66.66,0,0,0,.61-.41l1.35-3.31v0a0,0,0,0,1,0,0h0a.2.2,0,0,0,0-.05,0,0,0,0,1,0,0s0-.05,0-.08V28s0,0,0-.06ZM19.37,4.09h0l0,.07h0l0,.07v0l0,0v0l0,.06.05.06h0l0,0h0l0,0h0l.07,0,3.35,1.35a.65.65,0,0,0,.49-1.21l-2.24-.9a4.44,4.44,0,0,1,4-.1h0A4.56,4.56,0,0,1,28,8a.65.65,0,0,0,.64.67h0A.66.66,0,0,0,29.33,8a5.86,5.86,0,0,0-3.38-5.48h0a5.73,5.73,0,0,0-4.56-.16L22,.91A.66.66,0,0,0,20.76.42h0L19.41,3.73v0a.2.2,0,0,0,0,.05,0,0,0,0,1,0,0s0,.05,0,.08V4s0,0,0,.06Z"/></g></svg><svg viewBox="0 0 32 26.670668"><g id="src-12" class="icon"><defs><style>.menu-1 { fill: rgb(255, 255, 255); }</style></defs><title>menunew</title><rect class="menu-1" y="23.11" width="32" height="3.56"/><rect class="menu-1" y="14.22" width="32" height="3.56"/><rect class="menu-1" y="5.33" width="32" height="3.56"/></g></svg><svg viewBox="0 0 32 32.001846"><g id="src-13" class="icon"><defs><style>.newsletter-icon { fill: rgb(255, 255, 255); }</style></defs><title>newsletter-icon</title><path class="newsletter-icon" d="M21,3.44,17.59.58a2.45,2.45,0,0,0-3.17,0L11,3.44Z"/><path class="newsletter-icon" d="M2.88,12.56l12.74,10a.62.62,0,0,0,.77,0l12.74-10v-6a1.25,1.25,0,0,0-1.25-1.25H4.13A1.25,1.25,0,0,0,2.88,6.56Zm20.91,1.51a.94.94,0,0,1-.94.94H9.16a.94.94,0,0,1,0-1.87H22.84A.94.94,0,0,1,23.78,14.06ZM18,9.38a.94.94,0,0,1,0,1.88H9.16a.94.94,0,0,1,0-1.87Z"/><path class="newsletter-icon" d="M29.5,32a2.5,2.5,0,0,0,.74-.11L18.47,23.45l-.12-.1-.81.63a2.5,2.5,0,0,1-3.08,0l-.81-.63-.12.1L1.76,31.89A2.5,2.5,0,0,0,2.5,32Z"/><path class="newsletter-icon" d="M32,12.69,19.88,22.16l11.84,8.49A2.49,2.49,0,0,0,32,29.5Z"/><path class="newsletter-icon" d="M12.12,22.16,0,12.69V29.5a2.49,2.49,0,0,0,.28,1.15Z"/></g></svg><svg viewBox="0 0 32 32.001846"><g id="src-14" class="icon"><defs><style>.newsletter-blue { fill: rgb(29, 58, 124); }</style></defs><title>newsletter-icon</title><path class="newsletter-blue" d="M21,3.44,17.59.58a2.45,2.45,0,0,0-3.17,0L11,3.44Z"/><path class="newsletter-blue" d="M2.88,12.56l12.74,10a.62.62,0,0,0,.77,0l12.74-10v-6a1.25,1.25,0,0,0-1.25-1.25H4.13A1.25,1.25,0,0,0,2.88,6.56Zm20.91,1.51a.94.94,0,0,1-.94.94H9.16a.94.94,0,0,1,0-1.87H22.84A.94.94,0,0,1,23.78,14.06ZM18,9.38a.94.94,0,0,1,0,1.88H9.16a.94.94,0,0,1,0-1.87Z"/>
<path class="newsletter-blue" d="M29.5,32a2.5,2.5,0,0,0,.74-.11L18.47,23.45l-.12-.1-.81.63a2.5,2.5,0,0,1-3.08,0l-.81-.63-.12.1L1.76,31.89A2.5,2.5,0,0,0,2.5,32Z"/><path class="newsletter-blue" d="M32,12.69,19.88,22.16l11.84,8.49A2.49,2.49,0,0,0,32,29.5Z"/><path class="newsletter-blue" d="M12.12,22.16,0,12.69V29.5a2.49,2.49,0,0,0,.28,1.15Z"/></g></svg><svg viewBox="0 0 28 32"><g id="src-15" class="icon"><defs><style>.notifi { fill: rgb(255, 255, 255); }</style></defs><title>notification_icon</title><path id="Shape_1_copy_3" data-name="Shape 1 copy 3" class="notifi" d="M16,32a3.66,3.66,0,0,1-3.55-3.76h7.1A3.66,3.66,0,0,1,16,32Zm12-7.53h0C28,25.86,26.94,26,25.62,26H6.37C5.06,26,4,25.86,4,24.47v-.24A2.52,2.52,0,0,1,5.35,22l.75-6.89A10.35,10.35,0,0,1,14,4.83V2.15a2,2,0,1,1,4.07,0V4.83A10.35,10.35,0,0,1,25.9,15.08L26.65,22A2.52,2.52,0,0,1,28,24.24v.24Z"/></g></svg><svg viewBox="0 0 28 32"><g id="src-16" class="icon"><defs><style>.notification-blue { fill: rgb(29, 58, 124); }</style></defs><title>notification_icon</title><path id="Shape_1_copy_3" data-name="Shape 1 copy 3" class="notification-blue" d="M16,32a3.66,3.66,0,0,1-3.55-3.76h7.1A3.66,3.66,0,0,1,16,32Zm12-7.53h0C28,25.86,26.94,26,25.62,26H6.37C5.06,26,4,25.86,4,24.47v-.24A2.52,2.52,0,0,1,5.35,22l.75-6.89A10.35,10.35,0,0,1,14,4.83V2.15a2,2,0,1,1,4.07,0V4.83A10.35,10.35,0,0,1,25.9,15.08L26.65,22A2.52,2.52,0,0,1,28,24.24v.24Z"/></g></svg><svg viewBox="0 0 32.047485 32.047474"><g id="src-17" class="icon"><defs><style>.search-icon { fill: rgb(255, 255, 255); }</style></defs><title>search</title><path class="search-icon" d="M31.61,29.72l-9.1-9.1a12.69,12.69,0,1,0-1.89,1.89l9.1,9.1a1.33,1.33,0,1,0,1.89-1.89ZM12.67,22.67a10,10,0,1,1,10-10A10,10,0,0,1,12.67,22.67Z"/></g></svg><svg viewBox="0 0 32.047485 32.047474"><g id="src-18" class="icon"><defs><style>.search-blue-icon { fill: rgb(29, 58, 124); }</style></defs><title>search</title><path class="search-blue-icon" d="M31.61,29.72l-9.1-9.1a12.69,12.69,0,1,0-1.89,1.89l9.1,9.1a1.33,1.33,0,1,0,1.89-1.89ZM12.67,22.67a10,10,0,1,1,10-10A10,10,0,0,1,12.67,22.67Z"/></g></svg>
<svg viewBox="0 0 32 32">
<g id="src-19" class="icon">
<defs><style>.share-blue-1{fill:none;}.share-blue-2{clip-path:url(#clip-path);}.share-blue-3{fill:#2c498d;}.share-blue-4{fill:#fff;}</style>
<clipPath id="clip-path"><rect class="share-blue-1" y="2" width="32" height="28"/></clipPath></defs>
<title>share-blue_icon</title>
<g class="share-blue-2"><path class="share-blue-3" d="M16,14.4a5.26,5.26,0,0,0-5.15,4.35h10.3A5.26,5.26,0,0,0,16,14.4"/>
<path class="share-blue-3" d="M16,7a2.8,2.8,0,1,0,2.77,2.83v0A2.78,2.78,0,0,0,16,7h0"/>
<path class="share-blue-3" d="M29.23,2H2.77A2.78,2.78,0,0,0,0,4.8H0V22.22A2.78,2.78,0,0,0,2.77,25h9.07l3.41,4.61a.91.91,0,0,0,1.47,0L20.13,25H29.2A2.78,2.78,0,0,0,32,22.26s0,0,0,0V4.8A2.78,2.78,0,0,0,29.23,2h0M22.16,20.67H9.84a.93.93,0,0,1-.93-.93,7.17,7.17,0,0,1,4-6.4,4.61,4.61,0,1,1,6.1,0,7.17,7.17,0,0,1,4,6.4.93.93,0,0,1-.93.93"/></g>
<path class="share-blue-4" d="M30.56,7.26h-3.2V4a.75.75,0,1,0-1.49,0v3.3h-3.2a.75.75,0,1,0,0,1.5h3.2v3.3a.75.75,0,1,0,1.49,0V8.77h3.2a.75.75,0,0,0,0-1.5Z"/>
</g>
</svg>
	
<svg viewBox="0 0 32 32"><g id="quiz-white" class="icon">
<style type="text/css">
	.q1{fill:#FFFFFF;}
</style>
<path class="q1" d="M31.9,15.3C31.9,6.9,24.8,0,16,0C7.2,0,0.1,6.9,0.1,15.4c0,8.5,7.1,15.4,15.9,15.4c2.8,0,5.5-0.7,7.9-2.1
	l2.9,3.3l4.8-3.9l-3-3.5C30.8,22,31.9,18.7,31.9,15.3z M24.8,20.2L23,18.1L18.2,22l2,2.3c-1.3,0.6-2.8,0.9-4.2,0.9
	c-5.6,0-10.2-4.4-10.2-9.8c0-5.4,4.6-9.8,10.2-9.8c5.6,0,10.2,4.4,10.2,9.8C26.2,17.1,25.7,18.8,24.8,20.2z"/></g>
</svg>	
<svg viewBox="0 0 32 32"><g id="quiz-blue" class="icon">
<style type="text/css">
	.qb{fill:#1D3A7C;}
</style>
<path class="qb" d="M31.9,15.3C31.9,6.9,24.8,0,16,0S0.1,6.9,0.1,15.4S7.2,30.8,16,30.8c2.8,0,5.5-0.7,7.9-2.1l2.9,3.3l4.8-3.9
	l-3-3.5C30.8,22,31.9,18.7,31.9,15.3z M24.8,20.2L23,18.1L18.2,22l2,2.3c-1.3,0.6-2.8,0.9-4.2,0.9c-5.6,0-10.2-4.4-10.2-9.8
					S10.4,5.6,16,5.6s10.2,4.4,10.2,9.8C26.2,17.1,25.7,18.8,24.8,20.2z"/> </g>
</svg>
<svg viewBox="0 0 32 32"><g id="podcast-white" class="icon"><defs><style>.podcast-w{fill:#fff;}</style></defs><title>podcast_header-white</title>
<path class="podcast-w" d="M23.86,21.1a.92.92,0,0,0,1.28-.23l0-.05A10.9,10.9,0,0,0,27,14.68a11,11,0,1,0-22,0,10.9,10.9,0,0,0,1.84,6.14.92.92,0,1,0,1.52-1h0a9.18,9.18,0,1,1,15.23,0,.92.92,0,0,0,.23,1.28l.05,0Z"/>
<path class="podcast-w" d="M4.26,23.48a.92.92,0,1,0,1.47-1.1,12.84,12.84,0,1,1,23.11-7.7,12.73,12.73,0,0,1-2.58,7.7.92.92,0,0,0,.18,1.28h0a.92.92,0,0,0,1.28-.18,14.68,14.68,0,1,0-26.42-8.8,14.55,14.55,0,0,0,2.95,8.8Z"/>
<path class="podcast-w" d="M16.35,24.76A3.32,3.32,0,0,1,13,21.45V10.72a3.31,3.31,0,1,1,6.63,0V21.56a3.3,3.3,0,0,1-3.31,3.2Z"/>
<path class="podcast-w" d="M10.82,19.58h.69a.41.41,0,0,1,.43.43v1.38a4.41,4.41,0,0,0,8.82,0V20a.41.41,0,0,1,.43-.43h.69a.41.41,0,0,1,.43.43v1.38a6,6,0,0,1-5.19,5.87v3.2h3a.41.41,0,0,1,.43.43v.69a.41.41,0,0,1-.43.43h-7.6a.41.41,0,0,1-.43-.43v-.69a.41.41,0,0,1,.43-.43h3v-3.2a6,6,0,0,1-5.19-5.87V20a.49.49,0,0,1,.45-.43Z"/>
</g></svg>
<svg viewBox="0 0 32 32"><g id="podcast-blue" class="icon">
<defs><style>.podcast-bl{fill:#1d3a7c;}</style></defs><title>podcast_header-blue</title>
<path class="podcast-bl" d="M23.86,21.1a.92.92,0,0,0,1.28-.23l0-.05A10.9,10.9,0,0,0,27,14.68a11,11,0,1,0-22,0,10.9,10.9,0,0,0,1.84,6.14.92.92,0,1,0,1.52-1h0a9.18,9.18,0,1,1,15.23,0,.92.92,0,0,0,.23,1.28l.05,0Z"/>
<path class="podcast-bl" d="M4.26,23.48a.92.92,0,1,0,1.47-1.1,12.84,12.84,0,1,1,23.11-7.7,12.73,12.73,0,0,1-2.58,7.7.92.92,0,0,0,.18,1.28h0a.92.92,0,0,0,1.28-.18,14.68,14.68,0,1,0-26.42-8.8,14.55,14.55,0,0,0,2.95,8.8Z"/>
<path class="podcast-bl" d="M16.35,24.76A3.32,3.32,0,0,1,13,21.45V10.72a3.31,3.31,0,1,1,6.63,0V21.56a3.3,3.3,0,0,1-3.31,3.2Z"/>
<path class="podcast-bl" d="M10.82,19.58h.69a.41.41,0,0,1,.43.43v1.38a4.41,4.41,0,0,0,8.82,0V20a.41.41,0,0,1,.43-.43h.69a.41.41,0,0,1,.43.43v1.38a6,6,0,0,1-5.19,5.87v3.2h3a.41.41,0,0,1,.43.43v.69a.41.41,0,0,1-.43.43h-7.6a.41.41,0,0,1-.43-.43v-.69a.41.41,0,0,1,.43-.43h3v-3.2a6,6,0,0,1-5.19-5.87V20a.49.49,0,0,1,.45-.43Z"/></g></svg>
<svg viewBox="0 0 32 32"><g id="social-white" class="icon"><defs><style>.social-w{fill:#fff;}</style></defs><title>social-icon</title><path class="social-w" d="M27.47,16c0,.26,0,.52,0,.78a5.43,5.43,0,0,1,1.83.58q.07-.67.07-1.36t-.07-1.36a5.43,5.43,0,0,1-1.83.58c0,.26,0,.52,0,.78Z"/><path class="social-w" d="M22.4,25.52a11.48,11.48,0,0,1-1.35.78,5.43,5.43,0,0,1,.42,1.88,13.23,13.23,0,0,0,2.35-1.36,5.43,5.43,0,0,1-1.42-1.3Z"/><path class="social-w" d="M9.61,6.48A11.48,11.48,0,0,1,11,5.7a5.43,5.43,0,0,1-.42-1.88A13.23,13.23,0,0,0,8.19,5.18a5.43,5.43,0,0,1,1.42,1.3Z"/><path class="social-w" d="M22.4,6.48a5.43,5.43,0,0,1,1.42-1.3,13.23,13.23,0,0,0-2.35-1.36,5.43,5.43,0,0,1-.42,1.88A11.46,11.46,0,0,1,22.4,6.48Z"/><path class="social-w" d="M9.61,25.52a5.43,5.43,0,0,1-1.42,1.3,13.23,13.23,0,0,0,2.35,1.36A5.43,5.43,0,0,1,11,26.3a11.47,11.47,0,0,1-1.35-.78Z"/><path class="social-w" d="M4.54,16c0-.26,0-.52,0-.78a5.43,5.43,0,0,1-1.83-.58A13.57,13.57,0,0,0,2.66,16q0,.68.07,1.36a5.43,5.43,0,0,1,1.83-.58C4.55,16.52,4.54,16.26,4.54,16Z"/><circle class="social-w" cx="16.01" cy="16" r="6"/><path class="social-w" d="M16,0a3.59,3.59,0,1,1-3.59,3.59A3.59,3.59,0,0,1,16,0"/><circle class="social-w" cx="5.26" cy="9.8" r="3.59" transform="translate(-5.39 6.59) rotate(-45)"/><circle class="social-w" cx="5.25" cy="22.2" r="3.59" transform="translate(-16.54 15.45) rotate(-59.46)"/><circle class="social-w" cx="16.01" cy="28.41" r="3.59"/><circle class="social-w" cx="26.74" cy="22.21" r="3.59" transform="translate(-5.33 8.81) rotate(-17.04)"/><circle class="social-w" cx="26.75" cy="9.8" r="3.59" transform="translate(0.9 21.78) rotate(-45)"/></g></svg>
<svg viewBox="0 0 32 32"><g id="social-blue" class="icon"><defs><style>.social-b{fill:#1d3a7c;}</style></defs><title>social-blue</title><path class="social-b" d="M27.47,16c0,.26,0,.52,0,.78a5.43,5.43,0,0,1,1.83.58q.07-.67.07-1.36t-.07-1.36a5.43,5.43,0,0,1-1.83.58c0,.26,0,.52,0,.78Z"/><path class="social-b" d="M22.4,25.52a11.48,11.48,0,0,1-1.35.78,5.43,5.43,0,0,1,.42,1.88,13.23,13.23,0,0,0,2.35-1.36,5.43,5.43,0,0,1-1.42-1.3Z"/><path class="social-b" d="M9.61,6.48A11.48,11.48,0,0,1,11,5.7a5.43,5.43,0,0,1-.42-1.88A13.23,13.23,0,0,0,8.19,5.18a5.43,5.43,0,0,1,1.42,1.3Z"/><path class="social-b" d="M22.4,6.48a5.43,5.43,0,0,1,1.42-1.3,13.23,13.23,0,0,0-2.35-1.36,5.43,5.43,0,0,1-.42,1.88A11.46,11.46,0,0,1,22.4,6.48Z"/><path class="social-b" d="M9.61,25.52a5.43,5.43,0,0,1-1.42,1.3,13.23,13.23,0,0,0,2.35,1.36A5.43,5.43,0,0,1,11,26.3a11.47,11.47,0,0,1-1.35-.78Z"/><path class="social-b" d="M4.54,16c0-.26,0-.52,0-.78a5.43,5.43,0,0,1-1.83-.58A13.57,13.57,0,0,0,2.66,16q0,.68.07,1.36a5.43,5.43,0,0,1,1.83-.58C4.55,16.52,4.54,16.26,4.54,16Z"/><circle class="social-b" cx="16.01" cy="16" r="6"/><path class="social-b" d="M16,0a3.59,3.59,0,1,1-3.59,3.59A3.59,3.59,0,0,1,16,0"/><circle class="social-b" cx="5.26" cy="9.8" r="3.59" transform="translate(-5.39 6.59) rotate(-45)"/><circle class="social-b" cx="5.25" cy="22.2" r="3.59" transform="translate(-16.54 15.45) rotate(-59.46)"/><circle class="social-b" cx="16.01" cy="28.41" r="3.59"/><circle class="social-b" cx="26.74" cy="22.21" r="3.59" transform="translate(-5.33 8.81) rotate(-17.04)"/><circle class="social-b" cx="26.75" cy="9.8" r="3.59" transform="translate(0.9 21.78) rotate(-45)"/></g></svg>
<svg viewBox="0 0 18 18"><g id="screen-reader" class="icon"><defs><style>.sr{fill:#fff;}</style></defs><path class="sr" d="M16.1.87H1.9a1.93,1.93,0,0,0-1.34.55A1.9,1.9,0,0,0,0,2.77v9a1.89,1.89,0,0,0,1.9,1.9H6.5L6,16.44H4.15a.34.34,0,0,0-.23.11.31.31,0,0,0-.1.24.34.34,0,0,0,.33.34h9.7a.34.34,0,0,0,.33-.34.31.31,0,0,0-.1-.24.34.34,0,0,0-.23-.11h-1.8l-.55-2.77h4.6a1.89,1.89,0,0,0,1.9-1.9v-9a1.9,1.9,0,0,0-.56-1.35A1.93,1.93,0,0,0,16.1.87ZM6.65,16.44l.56-2.77h3.58l.56,2.77Zm10.66-4.67A1.21,1.21,0,0,1,16.1,13H1.9A1.21,1.21,0,0,1,.69,11.77V10.9H17.31Zm0-1.56H.69V9.52H2.77l.14,0L3,9.42a.44.44,0,0,0,.08-.11.32.32,0,0,0,0-.14A.31.31,0,0,0,3.1,9L3,8.92a.41.41,0,0,0-.11-.07.34.34,0,0,0-.14,0H.69V2.77A1.21,1.21,0,0,1,1.9,1.56H16.1a1.21,1.21,0,0,1,1.21,1.21Z"/><path class="sr" d="M9,11.25a.69.69,0,0,0-.39.12.64.64,0,0,0-.25.31.68.68,0,0,0,.15.75.71.71,0,0,0,.35.19.68.68,0,0,0,.4,0,.72.72,0,0,0,.32-.25.77.77,0,0,0,.11-.39A.68.68,0,0,0,9,11.25Z"/><path class="sr" d="M4.15,9.11a.64.64,0,0,0,0-.07L4.1,9A.28.28,0,0,0,4,8.89l-.06,0-.06,0H3.74l-.06,0-.06,0-.06,0,0,.05,0,.06a.14.14,0,0,0,0,.07.29.29,0,0,0,0,.13.25.25,0,0,0,0,.07l0,.06,0,.05.06,0,.06,0,.06,0h.14l.06,0,.06,0,0,0,0-.05,0-.06a.64.64,0,0,1,0-.07A.29.29,0,0,0,4.15,9.11Z"/><path class="sr" d="M5.3,7.73a.27.27,0,0,1-.19-.08A.25.25,0,0,1,5,7.47v-2a.27.27,0,0,1,.08-.19.41.41,0,0,1,.19-.08.42.42,0,0,1,.18.08.27.27,0,0,1,.08.19v2a.18.18,0,0,1,0,.1.41.41,0,0,1,0,.09l-.09,0A.18.18,0,0,1,5.3,7.73Zm5.36,1.51H9.6a.41.41,0,0,1-.19-.08A.27.27,0,0,1,9.33,9V8.71L6,7.73a.34.34,0,0,1-.18-.26V5.34L6.49,3a.32.32,0,0,1,.11-.12.24.24,0,0,1,.16-.05h.09l1,.35A.14.14,0,0,1,8,3.34a.16.16,0,0,1,0,.09.14.14,0,0,1,0,.09l-.31,1.2,1.68-.49V4a.34.34,0,0,1,.09-.19.37.37,0,0,1,.18-.08H10.7a.41.41,0,0,1,.19.08A.33.33,0,0,1,11,4V9A.37.37,0,0,1,10.66,9.24ZM7.47,3.61l-.58-.18L6.4,5.07l.67-.17ZM7.38,5.34l-1.11.31V7.29l3.06.93V4.72Zm3-1.11H9.86V8.71h.53Zm2.22.8L11.5,5.6a.26.26,0,1,1-.22-.48l1.11-.58h.13a.2.2,0,0,1,.13,0,.2.2,0,0,1,.09.09.3.3,0,0,1-.13.36Zm-1.2,2.3h.14l1.1.58a.27.27,0,0,1,.14.35.31.31,0,0,1-.36.14l-1.11-.58c-.13,0-.17-.22-.13-.35a.22.22,0,0,1,.09-.1.33.33,0,0,1,.13,0Zm1.33-.62h-.93a.22.22,0,0,1-.22-.26.24.24,0,0,1,.22-.23h.93a.23.23,0,0,1,.23.27.29.29,0,0,1,0,.09.26.26,0,0,1-.12.12Z"/></g></svg>
<svg viewBox="0 0 18 18"><g id="sr-hover" class="icon"><defs><style>.sr-1{fill:#395494;}</style></defs><path class="sr-1" d="M16.1.87H1.9a1.93,1.93,0,0,0-1.34.55A1.9,1.9,0,0,0,0,2.77v9a1.89,1.89,0,0,0,1.9,1.9H6.5L6,16.44H4.15a.34.34,0,0,0-.23.11.31.31,0,0,0-.1.24.34.34,0,0,0,.33.34h9.7a.34.34,0,0,0,.33-.34.31.31,0,0,0-.1-.24.34.34,0,0,0-.23-.11h-1.8l-.55-2.77h4.6a1.89,1.89,0,0,0,1.9-1.9v-9a1.9,1.9,0,0,0-.56-1.35A1.93,1.93,0,0,0,16.1.87ZM6.65,16.44l.56-2.77h3.58l.56,2.77Zm10.66-4.67A1.21,1.21,0,0,1,16.1,13H1.9A1.21,1.21,0,0,1,.69,11.77V10.9H17.31Zm0-1.56H.69V9.52H2.77l.14,0L3,9.42a.44.44,0,0,0,.08-.11.32.32,0,0,0,0-.14A.31.31,0,0,0,3.1,9L3,8.92a.41.41,0,0,0-.11-.07.34.34,0,0,0-.14,0H.69V2.77A1.21,1.21,0,0,1,1.9,1.56H16.1a1.21,1.21,0,0,1,1.21,1.21Z"/><path class="sr-1" d="M9,11.25a.69.69,0,0,0-.39.12.64.64,0,0,0-.25.31.68.68,0,0,0,.15.75.71.71,0,0,0,.35.19.68.68,0,0,0,.4,0,.72.72,0,0,0,.32-.25.77.77,0,0,0,.11-.39A.68.68,0,0,0,9,11.25Z"/><path class="sr-1" d="M4.15,9.11a.64.64,0,0,0,0-.07L4.1,9A.28.28,0,0,0,4,8.89l-.06,0-.06,0H3.74l-.06,0-.06,0-.06,0,0,.05,0,.06a.14.14,0,0,0,0,.07.29.29,0,0,0,0,.13.25.25,0,0,0,0,.07l0,.06,0,.05.06,0,.06,0,.06,0h.14l.06,0,.06,0,0,0,0-.05,0-.06a.64.64,0,0,1,0-.07A.29.29,0,0,0,4.15,9.11Z"/><path class="sr-1" d="M5.3,7.73a.27.27,0,0,1-.19-.08A.25.25,0,0,1,5,7.47v-2a.27.27,0,0,1,.08-.19.41.41,0,0,1,.19-.08.42.42,0,0,1,.18.08.27.27,0,0,1,.08.19v2a.18.18,0,0,1,0,.1.41.41,0,0,1,0,.09l-.09,0A.18.18,0,0,1,5.3,7.73Zm5.36,1.51H9.6a.41.41,0,0,1-.19-.08A.27.27,0,0,1,9.33,9V8.71L6,7.73a.34.34,0,0,1-.18-.26V5.34L6.49,3a.32.32,0,0,1,.11-.12.24.24,0,0,1,.16-.05h.09l1,.35A.14.14,0,0,1,8,3.34a.16.16,0,0,1,0,.09.14.14,0,0,1,0,.09l-.31,1.2,1.68-.49V4a.34.34,0,0,1,.09-.19.37.37,0,0,1,.18-.08H10.7a.41.41,0,0,1,.19.08A.33.33,0,0,1,11,4V9A.37.37,0,0,1,10.66,9.24ZM7.47,3.61l-.58-.18L6.4,5.07l.67-.17ZM7.38,5.34l-1.11.31V7.29l3.06.93V4.72Zm3-1.11H9.86V8.71h.53Zm2.22.8L11.5,5.6a.26.26,0,1,1-.22-.48l1.11-.58h.13a.2.2,0,0,1,.13,0,.2.2,0,0,1,.09.09.3.3,0,0,1-.13.36Zm-1.2,2.3h.14l1.1.58a.27.27,0,0,1,.14.35.31.31,0,0,1-.36.14l-1.11-.58c-.13,0-.17-.22-.13-.35a.22.22,0,0,1,.09-.1.33.33,0,0,1,.13,0Zm1.33-.62h-.93a.22.22,0,0,1-.22-.26.24.24,0,0,1,.22-.23h.93a.23.23,0,0,1,.23.27.29.29,0,0,1,0,.09.26.26,0,0,1-.12.12Z"/></g></svg>
</svg>