<svg width="112" height="36" viewBox="0 0 112 36" fill="none" xmlns="http://www.w3.org/2000/svg">
<rect width="112" height="36" rx="5" fill="white"/>
<g clip-path="url(#clip0)">
<path d="M106.427 34H6.01796C3.80349 34 2 32.1965 2 30V6C2 3.79551 3.80349 2 6.01796 2H106.427C108.639 2 110.445 3.79551 110.445 6V30C110.445 32.1965 108.639 34 106.427 34Z" fill="black"/>
<path d="M106.427 2.6404C108.284 2.6404 109.804 4.15062 109.804 6V30C109.804 31.8494 108.294 33.3596 106.427 33.3596H6.01796C4.1606 33.3596 2.6404 31.8494 2.6404 30V6C2.6404 4.15062 4.15062 2.6404 6.01796 2.6404H106.427ZM106.427 2H6.01796C3.80349 2 2 3.80349 2 6V30C2 32.2045 3.80349 34 6.01796 34H106.427C108.639 34 110.445 32.2045 110.445 30V6C110.445 3.80349 108.639 2 106.427 2Z" fill="#A6A6A6"/>
<path d="M59.1289 12.5855C58.4047 12.5855 57.7943 12.3322 57.3115 11.8334C56.8327 11.3486 56.5653 10.6803 56.5773 9.99801C56.5773 9.26983 56.8247 8.65337 57.3115 8.1646C57.7923 7.66584 58.4027 7.41248 59.1269 7.41248C59.8431 7.41248 60.4536 7.66584 60.9444 8.1646C61.4311 8.66933 61.6785 9.28579 61.6785 9.99801C61.6705 10.7282 61.4232 11.3446 60.9444 11.8314C60.4636 12.3342 59.8531 12.5855 59.1289 12.5855ZM37.581 12.5855C36.8727 12.5855 36.2583 12.3362 35.7555 11.8434C35.2568 11.3526 35.0034 10.7322 35.0034 10C35.0034 9.26784 35.2568 8.64739 35.7555 8.15662C36.2483 7.66385 36.8628 7.41447 37.581 7.41447C37.9321 7.41447 38.2732 7.4843 38.6004 7.62594C38.9216 7.7636 39.1829 7.95113 39.3765 8.18056L39.4243 8.23841L38.8837 8.76908L38.8278 8.70325C38.5226 8.34016 38.1136 8.1626 37.573 8.1626C37.0902 8.1626 36.6692 8.33417 36.3221 8.67332C35.973 9.01447 35.7954 9.46135 35.7954 10.002C35.7954 10.5427 35.973 10.9895 36.3221 11.3307C36.6692 11.6698 37.0902 11.8414 37.573 11.8414C38.0877 11.8414 38.5206 11.6698 38.8578 11.3307C39.0573 11.1312 39.1809 10.8519 39.2248 10.4988H37.4912V9.75263H39.969L39.9789 9.82046C39.9969 9.94614 40.0148 10.0758 40.0148 10.1955C40.0148 10.8838 39.8074 11.4404 39.3964 11.8514C38.9296 12.3382 38.3191 12.5855 37.581 12.5855ZM66.2311 12.4798H65.467L63.1269 8.73517L63.1468 9.40948V12.4778H62.3828V7.52021H63.2546L63.2785 7.55811L65.479 11.0853L65.459 10.413V7.52021H66.2311V12.4798ZM53.3873 12.4798H52.6133V8.26634H51.2706V7.52021H54.728V8.26634H53.3853V12.4798H53.3873ZM50.6402 12.4798H49.8681V7.52021H50.6402V12.4798ZM46.3011 12.4798H45.529V8.26634H44.1864V7.52021H47.6437V8.26634H46.3011V12.4798ZM43.6976 12.4718H40.737V7.52021H43.6976V8.26634H41.5111V9.62694H43.4841V10.3651H41.5111V11.7257H43.6976V12.4718ZM57.8781 11.3207C58.2232 11.6658 58.6421 11.8394 59.1289 11.8394C59.6297 11.8394 60.0386 11.6698 60.3798 11.3207C60.7189 10.9816 60.8905 10.5367 60.8905 10C60.8905 9.46335 60.7189 9.01647 60.3818 8.67931C60.0366 8.33417 59.6157 8.16061 59.1309 8.16061C58.6302 8.16061 58.2212 8.33018 57.882 8.67931C57.5429 9.01846 57.3713 9.46335 57.3713 10C57.3713 10.5367 57.5409 10.9835 57.8781 11.3207Z" fill="white"/>
<path d="M56.5057 19.4045C54.6204 19.4045 53.0922 20.8349 53.0922 22.808C53.0922 24.7631 54.6304 26.2115 56.5057 26.2115C58.391 26.2115 59.9192 24.7711 59.9192 22.808C59.9192 20.8349 58.391 19.4045 56.5057 19.4045ZM56.5057 24.8628C55.4743 24.8628 54.5865 24.009 54.5865 22.8C54.5865 21.5731 55.4763 20.7372 56.5057 20.7372C57.5371 20.7372 58.4249 21.5731 58.4249 22.8C58.4269 24.017 57.5371 24.8628 56.5057 24.8628ZM49.0583 19.4045C47.173 19.4045 45.6448 20.8349 45.6448 22.808C45.6448 24.7631 47.183 26.2115 49.0583 26.2115C50.9436 26.2115 52.4718 24.7711 52.4718 22.808C52.4718 20.8349 50.9416 19.4045 49.0583 19.4045ZM49.0583 24.8628C48.0269 24.8628 47.1391 24.009 47.1391 22.8C47.1391 21.5731 48.0289 20.7372 49.0583 20.7372C50.0897 20.7372 50.9775 21.5731 50.9775 22.8C50.9775 24.017 50.0897 24.8628 49.0583 24.8628ZM40.1965 20.4439V21.8843H43.6538C43.5481 22.6923 43.2807 23.2888 42.8718 23.6978C42.365 24.2045 41.583 24.7551 40.2044 24.7551C38.0797 24.7551 36.4179 23.0394 36.4179 20.9147C36.4179 18.79 38.0797 17.0743 40.2044 17.0743C41.3516 17.0743 42.1875 17.5272 42.8079 18.1057L43.8294 17.0843C42.9675 16.2583 41.8204 15.6259 40.2124 15.6259C37.2977 15.6259 34.8518 18 34.8518 20.9067C34.8518 23.8214 37.2957 26.1875 40.2124 26.1875C41.7865 26.1875 42.9675 25.6728 43.9012 24.7032C44.8528 23.7516 45.1541 22.409 45.1541 21.3257C45.1541 20.9885 45.1281 20.6853 45.0743 20.4279H40.1945C40.1965 20.4259 40.1965 20.4439 40.1965 20.4439ZM76.4439 21.5651C76.1586 20.801 75.2968 19.3965 73.5292 19.3965C71.7776 19.3965 70.3212 20.7751 70.3212 22.8C70.3212 24.7112 71.7616 26.2035 73.6988 26.2035C75.2549 26.2035 76.1606 25.2519 76.5337 24.6933L75.3786 23.9192C74.9955 24.4878 74.4629 24.8608 73.7067 24.8608C72.9426 24.8608 72.408 24.5137 72.0529 23.8294L76.6035 21.9441C76.6035 21.9461 76.4439 21.5651 76.4439 21.5651ZM71.8035 22.7022C71.7676 21.3875 72.8249 20.7192 73.5811 20.7192C74.1776 20.7192 74.6743 21.0125 74.8439 21.4394L71.8035 22.7022ZM68.1067 26H69.601V16.001H68.1067V26ZM65.6529 20.1606H65.599C65.2618 19.7596 64.6214 19.3965 63.8035 19.3965C62.1057 19.3965 60.5416 20.8908 60.5416 22.81C60.5416 24.7212 62.0977 26.1975 63.8035 26.1975C64.6115 26.1975 65.2618 25.8324 65.599 25.4234H65.6529V25.9122C65.6529 27.211 64.9586 27.9112 63.8394 27.9112C62.9237 27.9112 62.3551 27.2529 62.1237 26.7022L60.8249 27.2449C61.198 28.1426 62.1935 29.2539 63.8374 29.2539C65.589 29.2539 67.0733 28.2224 67.0733 25.7067V19.6H65.6608V20.1606C65.6628 20.1606 65.6529 20.1606 65.6529 20.1606ZM63.9371 24.8628C62.9057 24.8628 62.0439 24.001 62.0439 22.81C62.0439 21.609 62.9057 20.7391 63.9371 20.7391C64.9586 20.7391 65.7506 21.6189 65.7506 22.81C65.7606 24.001 64.9606 24.8628 63.9371 24.8628ZM83.4404 16.001H79.8674V26H81.3616V22.2135H83.4424C85.0963 22.2135 86.7222 21.0145 86.7222 19.1112C86.7222 17.208 85.1023 16.001 83.4404 16.001ZM83.4843 20.817H81.3596V17.3855H83.4843C84.6035 17.3855 85.2359 18.3092 85.2359 19.1012C85.2359 19.8853 84.5955 20.817 83.4843 20.817ZM92.7113 19.3865C91.626 19.3865 90.5068 19.8673 90.0439 20.9147L91.3686 21.4653C91.6539 20.9147 92.1766 20.7272 92.7292 20.7272C93.5033 20.7272 94.2853 21.19 94.3033 22.016V22.1217C94.036 21.9701 93.4494 21.7386 92.7472 21.7386C91.3168 21.7386 89.8664 22.5207 89.8664 23.987C89.8664 25.3297 91.0394 26.1915 92.3462 26.1915C93.3497 26.1915 93.9023 25.7386 94.2474 25.214H94.3013V25.988H95.7417V22.1576C95.7417 20.3741 94.417 19.3865 92.7113 19.3865ZM92.5237 24.8628C92.035 24.8628 91.3507 24.6234 91.3507 24.009C91.3507 23.2349 92.2045 22.9416 92.9327 22.9416C93.5911 22.9416 93.9023 23.0833 94.2933 23.2788C94.1856 24.1766 93.4275 24.8549 92.5237 24.8628ZM100.997 19.6L99.2809 23.9372H99.227L97.4494 19.6H95.8414L98.5088 25.6628L96.9886 29.0324H98.5447L102.648 19.6H100.997ZM87.5462 26H89.0404V16.001H87.5462V26Z" fill="white"/>
<path d="M10.347 8.02693C10.1156 8.27631 9.98193 8.65736 9.98193 9.15611V26.8459C9.98193 27.3446 10.1156 27.7257 10.355 27.9651L10.4168 28.0189L20.3281 18.1077V17.8863L10.4089 7.97307L10.347 8.02693Z" fill="url(#paint0_linear)"/>
<path d="M23.6258 21.4214L20.3201 18.1157V17.8843L23.6258 14.5786L23.6976 14.6224L27.6079 16.8449C28.7271 17.4753 28.7271 18.5167 27.6079 19.1551L23.6976 21.3776L23.6258 21.4214Z" fill="url(#paint1_linear)"/>
<path d="M23.6978 21.3776L20.3202 18L10.3472 27.9731C10.7123 28.3641 11.3247 28.408 12.009 28.0269L23.6978 21.3776Z" fill="url(#paint2_linear)"/>
<path d="M23.6978 14.6224L12.009 7.98304C11.3247 7.59202 10.7103 7.64588 10.3472 8.0369L20.3202 18L23.6978 14.6224Z" fill="url(#paint3_linear)"/>
<path opacity="0.2" d="M23.6259 21.3057L12.0168 27.9013C11.3685 28.2744 10.7899 28.2484 10.4168 27.9093L10.355 27.9711L10.4168 28.025C10.7899 28.3621 11.3685 28.3901 12.0168 28.017L23.7057 21.3775L23.6259 21.3057Z" fill="black"/>
<path opacity="0.12" d="M27.608 19.0394L23.616 21.3057L23.6878 21.3776L27.598 19.1551C28.1586 18.8359 28.4339 18.417 28.4339 18C28.4 18.383 28.1147 18.7461 27.608 19.0394Z" fill="black"/>
<path opacity="0.25" d="M12.0089 8.09876L27.6079 16.9606C28.1146 17.2459 28.3999 17.619 28.4438 18C28.4438 17.5831 28.1685 17.1641 27.6079 16.8449L12.0089 7.98304C10.8897 7.34264 9.98193 7.87731 9.98193 9.15612V9.27183C9.98193 7.99102 10.8897 7.46633 12.0089 8.09876Z" fill="white"/>
</g>
<defs>
<linearGradient id="paint0_linear" x1="19.4391" y1="8.96569" x2="3.56308" y2="13.1959" gradientUnits="userSpaceOnUse">
<stop stop-color="#00A0FF"/>
<stop offset="0.00657" stop-color="#00A1FF"/>
<stop offset="0.2601" stop-color="#00BEFF"/>
<stop offset="0.5122" stop-color="#00D2FF"/>
<stop offset="0.7604" stop-color="#00DFFF"/>
<stop offset="1" stop-color="#00E3FF"/>
</linearGradient>
<linearGradient id="paint1_linear" x1="29.0674" y1="18" x2="9.70979" y2="18" gradientUnits="userSpaceOnUse">
<stop stop-color="#FFE000"/>
<stop offset="0.4087" stop-color="#FFBD00"/>
<stop offset="0.7754" stop-color="#FFA500"/>
<stop offset="1" stop-color="#FF9C00"/>
</linearGradient>
<linearGradient id="paint2_linear" x1="21.8604" y1="19.8374" x2="9.1152" y2="41.2887" gradientUnits="userSpaceOnUse">
<stop stop-color="#FF3A44"/>
<stop offset="1" stop-color="#C31162"/>
</linearGradient>
<linearGradient id="paint3_linear" x1="7.83599" y1="2.14295" x2="13.5221" y2="11.7234" gradientUnits="userSpaceOnUse">
<stop stop-color="#32A071"/>
<stop offset="0.0685" stop-color="#2DA771"/>
<stop offset="0.4762" stop-color="#15CF74"/>
<stop offset="0.8009" stop-color="#06E775"/>
<stop offset="1" stop-color="#00F076"/>
</linearGradient>
<clipPath id="clip0">
<rect width="108.445" height="32" fill="white" transform="translate(2 2)"/>
</clipPath>
</defs>
</svg>
